<?xml version="1.0" encoding="UTF-8" standalone="no"?>
<!DOCTYPE svg PUBLIC "-//W3C//DTD SVG 1.1//EN" "http://www.w3.org/Graphics/SVG/1.1/DTD/svg11.dtd">
<svg width="100%" height="100%" viewBox="0 0 2049 2049" version="1.1" xmlns="http://www.w3.org/2000/svg" xmlns:xlink="http://www.w3.org/1999/xlink" xml:space="preserve" xmlns:serif="http://www.serif.com/" style="fill-rule:evenodd;clip-rule:evenodd;stroke-linejoin:round;stroke-miterlimit:2;">
    <g transform="matrix(1,0,0,1,-18122,-2189)">
        <g transform="matrix(1,0,0,1,15898.4,2189.18)">
            <rect id="action-shape-white" x="2223.96" y="0" width="2048" height="2048" style="fill:none;"/>
            <g id="action-shape-white1" serif:id="action-shape-white">
                <g transform="matrix(1,0,0,1,-15837.6,-2189.18)">
                    <path d="M18908.5,2925.37C18918.4,2924.34 18925.9,2924.83 18930.1,2927.29C18962.5,2946.33 19003.6,2976.61 19011.9,2998.68C19020.1,3020.74 19012.7,3089.09 19017,3121.97C19021.4,3154.85 19026.1,3181.24 19032.2,3188.59C19038.2,3195.94 19070.3,3207.62 19077.6,3219.3C19085,3230.99 19081.1,3235.31 19086.7,3247.42C19092.3,3259.54 19108.8,3277.71 19110.1,3277.71C19111.4,3277.71 19114,3281.17 19130.4,3264.3C19146.8,3247.42 19149.9,3234.88 19162.4,3224.93C19174.9,3214.98 19184,3209.79 19189.2,3207.19C19194.4,3204.6 19197.9,3208.92 19204.4,3203.3C19210.9,3197.67 19209.1,3179.94 19215.6,3176.04C19222.1,3172.15 19236.8,3173.88 19244.2,3173.01C19251.5,3172.15 19272.7,3171.28 19282.7,3167.82C19292.6,3164.36 19300.8,3153.12 19300.8,3153.12C19300.8,3153.12 19304.3,3161.77 19309.9,3162.63C19315.5,3163.5 19339.8,3163.07 19351.9,3168.69C19364,3174.31 19405.1,3198.54 19405.1,3198.54C19405.1,3198.54 19427.2,3173.45 19435.8,3163.93C19440.8,3158.49 19454.1,3146.61 19464.7,3137.42C19455.1,3127.88 19464.7,3121.42 19460.3,3109.12C19455.6,3096.11 19446.7,3094.72 19442,3087.25C19437.3,3079.77 19425.9,3072.57 19425.9,3072.57C19425.9,3072.57 19433.1,3067.04 19438.7,3062.61C19444.2,3058.18 19442.3,3054.58 19442.3,3054.58L19434,3052.64C19434,3052.64 19436.2,3049.04 19440.1,3042.12C19443.9,3035.2 19452,3022.46 19453.4,3013.32C19454.7,3004.19 19450.8,2999.26 19450.8,2999.26C19450.8,2999.26 19442.6,2999.82 19438.6,2999.68C19434.7,2999.54 19430.4,2995.43 19430.4,2995.43C19430.4,2995.43 19434.1,2994.58 19436.8,2993.59C19439.5,2992.59 19440.8,2988.48 19440.8,2988.48C19440.8,2988.48 19436.9,2988.06 19434.7,2987.49C19432.4,2986.92 19431.8,2986.21 19428.3,2983.24C19424.7,2980.26 19421.9,2979.98 19421.9,2979.98C19421.9,2979.98 19427.9,2978.84 19432.7,2977.99C19437.5,2977.14 19441.2,2967.64 19445.4,2959.42C19449.7,2951.2 19453.8,2925.4 19451.5,2919.16C19449.3,2912.93 19429.4,2904.85 19429.4,2904.85L19468.7,2901.87L19477.3,2888.4C19477.3,2888.4 19465.8,2887.13 19453.5,2881.6C19441.2,2876.07 19433.5,2862.46 19433.5,2862.46C19433.5,2862.46 19472.2,2867.42 19484.8,2864.45C19497.5,2861.47 19510.6,2850.41 19510.6,2850.41C19510.6,2850.41 19488.4,2847.43 19482.7,2845.73C19477,2844.03 19467.8,2836.8 19467.8,2836.8C19467.8,2836.8 19476.8,2838.5 19480.6,2838.64C19484.4,2838.79 19492.4,2841.05 19492.4,2841.05C19492.4,2841.05 19488.2,2838.79 19483.1,2836.38C19478,2833.97 19475.7,2826.88 19475.7,2826.88C19475.7,2826.88 19492,2833.19 19497.1,2835.01C19502.3,2836.82 19510.4,2838.42 19510.4,2838.42C19510.4,2838.42 19511,2836.89 19513.9,2836.53C19516.7,2836.17 19521.2,2837.11 19521.2,2837.11C19521.2,2837.11 19508.1,2829.27 19504.1,2826.59C19500,2823.9 19496.2,2813.6 19496.2,2813.6C19496.2,2813.6 19519.2,2826.8 19527,2829.71C19534.8,2832.61 19548.7,2835.73 19548.7,2835.73C19548.7,2835.73 19548.8,2834.43 19551,2833.55C19553.1,2832.68 19559,2832.76 19559,2832.76C19559,2832.76 19541.2,2821.22 19535.8,2818.02C19530.4,2814.83 19524.6,2800.31 19524.6,2800.31C19524.6,2800.31 19534.3,2804.01 19536.5,2804.3C19538.7,2804.6 19544.5,2808.66 19544.5,2808.66C19544.5,2808.66 19544.5,2806.85 19543.9,2805.68C19543.3,2804.52 19540.3,2803.58 19540.3,2803.58C19540.3,2803.58 19545,2802.13 19547.8,2803.94C19550.5,2805.76 19554.6,2810.47 19554.6,2810.47C19554.6,2810.47 19553.8,2806.55 19553.5,2804.23C19553.2,2801.91 19555,2800.1 19555,2800.1C19555,2800.1 19562.8,2809.46 19565.4,2812.72C19568,2815.99 19571.1,2817.44 19571.1,2817.44C19571.1,2817.44 19571.8,2812.43 19572.2,2807.79C19572.7,2803.14 19579,2800.17 19579,2800.17C19579,2800.17 19576.6,2805.83 19577.6,2809.1C19578.6,2812.36 19581.3,2812.29 19581.3,2812.29C19581.3,2812.29 19580.9,2808.8 19583.3,2808.37C19585.7,2807.93 19589.5,2810.84 19589.5,2810.84C19589.5,2810.84 19586.6,2797.92 19586.6,2792.04C19586.6,2786.16 19593.9,2771.21 19593.9,2771.21C19593.9,2771.21 19595.4,2783.98 19596.5,2788.34C19597.7,2792.69 19601.6,2796.76 19601.6,2796.76C19601.6,2796.76 19601.6,2791.82 19603.4,2787.03C19605.1,2782.24 19608.7,2782.31 19608.7,2782.31C19608.7,2782.31 19608.9,2761.92 19609.6,2752.34C19610.3,2743.7 19615.6,2738.73 19616.7,2737.83C19615.9,2738.73 19612.5,2744.91 19612.9,2785.65C19613,2794.38 19616.8,2806.77 19616.8,2806.77C19616.8,2806.77 19620,2799.59 19622.5,2796.54C19625.1,2793.49 19630.7,2793.05 19630.7,2793.05C19630.7,2793.05 19627.5,2803.58 19626.4,2807.64C19625.4,2811.71 19629.3,2818.31 19629.3,2818.31C19629.3,2818.31 19633.5,2812.65 19640.4,2805.83C19642.8,2803.44 19663.6,2789.43 19663.6,2789.43C19663.6,2789.43 19646.3,2808.08 19643.1,2810.4C19639.8,2812.72 19629.5,2824.41 19629.5,2824.41L19639.4,2819.98L19643.3,2824.63C19643.3,2824.63 19650.5,2821.14 19671,2821.29C19691.5,2821.43 19690.2,2825.21 19690.2,2825.21C19690.2,2825.21 19686.4,2826.01 19684.4,2825.72C19682.5,2825.43 19678.7,2826.88 19678.7,2826.88C19678.7,2826.88 19683.9,2827.31 19686,2827.82C19687.9,2828.32 19691.8,2831.89 19691.8,2831.89C19691.8,2831.89 19687.1,2831.09 19684,2831.89C19681.5,2832.51 19677.9,2833.34 19677.9,2833.34C19677.9,2833.34 19684.6,2834.64 19691.5,2834.86C19698.5,2835.08 19706.9,2832.47 19712.4,2830.36C19718.2,2828.15 19732.6,2819.55 19732.6,2819.55C19732.6,2819.55 19724.4,2831.89 19715.7,2835.08C19707.1,2838.27 19693.6,2839.51 19693.6,2839.51C19693.6,2839.51 19694,2841.47 19695,2842.41C19695.9,2843.35 19701.3,2844.01 19701.3,2844.01L19698.3,2850.39C19698.3,2850.39 19705.8,2853.59 19711.1,2853.95C19716.4,2854.31 19721.8,2852.28 19725.6,2852.28C19729.4,2852.28 19733.3,2854.89 19733.3,2854.89L19720.4,2867.81C19720.4,2867.81 19738.4,2865.85 19742.3,2865.49C19746.1,2865.13 19759.8,2861.5 19759.8,2861.5C19759.8,2861.5 19754.8,2868.9 19752.7,2870.93C19750.7,2872.97 19744.4,2876.59 19744.4,2876.59C19744.4,2876.59 19758.6,2878.19 19762.4,2878.55C19766.2,2878.92 19780.9,2878.7 19780.9,2878.7C19780.9,2878.7 19777,2886.18 19773.9,2889.3C19770.7,2892.42 19767.6,2893.51 19767.6,2893.51C19767.6,2893.51 19782.7,2894.67 19788.9,2895.47C19795.2,2896.26 19803.5,2902.22 19803.5,2902.22C19803.5,2902.22 19796.3,2904.1 19793.7,2904.25C19791.2,2904.39 19790.7,2907.22 19790.7,2907.22C19790.7,2907.22 19789.7,2911.14 19786.8,2911.36C19784,2911.58 19782.9,2911.8 19782.9,2911.8C19782.9,2911.8 19791.6,2915.42 19794.8,2916.08C19797.9,2916.73 19804.4,2923.99 19804.4,2923.99C19804.4,2923.99 19799.3,2924.35 19795.5,2924.35C19791.7,2924.35 19788,2925.95 19788,2925.95C19788,2925.95 19795.8,2932.84 19797,2934.95C19798.2,2937.05 19797.4,2940.97 19797.4,2940.97L19804.6,2948.81L19799.4,2955.41C19799.4,2955.41 19807.7,2961.51 19808.2,2962.96C19808.6,2964.41 19804.9,2968.99 19804.9,2968.99L19816.7,2979.66C19816.7,2979.66 19815.1,2982.85 19814.3,2983.5C19813.4,2984.16 19810.5,2986.55 19810.5,2986.55C19810.5,2986.55 19814.6,2985.9 19818.9,2985.9C19823.1,2985.9 19827.6,2984.52 19827.6,2984.52C19827.6,2984.52 19827.4,2988.87 19826.4,2990.47C19825.4,2992.07 19822.8,2994.83 19822.8,2994.83L19830.4,2994.1C19830.4,2994.1 19824.9,3003.1 19823.2,3004.84C19821.5,3006.58 19813.5,3013.19 19813.5,3013.19C19813.5,3013.19 19824.7,3014.57 19830.7,3013.19C19836.6,3011.81 19845.3,3016.16 19845.3,3016.16C19845.3,3016.16 19833.7,3024.58 19830.1,3027.99C19827.2,3030.78 19816.9,3043.24 19816.9,3043.24L19839,3053.19C19839,3053.19 19828.6,3067.46 19822.9,3076.12C19817.3,3084.77 19803.5,3123.7 19796.6,3131.92C19789.6,3140.14 19778.8,3141.87 19778.8,3141.87C19778.8,3141.87 19771,3179.94 19759.8,3191.62C19748.5,3203.3 19736.9,3190.32 19736.9,3190.32L19736,3204.6C19736,3204.6 19718.6,3206.82 19707,3205.01C19707,3205.08 19707.1,3205.13 19707.1,3205.19C19708.6,3205.3 19730.9,3206.97 19734.5,3209.71C19738.2,3212.54 19755.3,3240.56 19778.5,3253.37C19801.6,3266.18 19841,3279.11 19851.9,3288.19C19862.7,3297.26 19875.9,3313.47 19875.9,3313.47C19875.9,3313.47 19857.4,3334.65 19838.3,3346.28C19819.2,3357.9 19808.1,3362.61 19803.1,3367.04C19798.1,3371.47 19795.1,3374.52 19795.1,3374.52C19795.1,3374.52 19805.9,3383.1 19812.8,3396.11C19819.7,3409.12 19824.4,3433.21 19829.7,3446.5C19834.9,3459.79 19842.7,3474.74 19847.9,3482.77C19853.2,3490.8 19892.2,3517.66 19901.7,3537.59C19911.1,3557.53 19902.2,3572.2 19900.3,3579.95C19898.3,3587.7 19898.9,3592.14 19898.9,3592.14C19898.9,3592.14 19902.5,3591.85 19903.5,3595.48C19904.5,3599.11 19910.2,3651.95 19908.7,3657.62C19907.3,3663.29 19901.7,3674.75 19898.2,3678.04C19894.7,3681.32 19879.9,3690.96 19878.3,3695.95C19876.7,3700.94 19889.8,3769.05 19888.5,3785.06C19887.2,3801.07 19877.1,3809.36 19876.9,3823.8C19876.6,3837.73 19883.7,3865.38 19884.1,3872.18C19884.6,3878.98 19883.8,3888.74 19884.8,3894.63C19885.8,3900.53 19901.5,3919.24 19902.9,3928.43C19904.4,3937.62 19895.9,3960.87 19905.9,4009.6C19915.8,4058.33 19939.3,4079.59 19941.5,4088.89C19943.7,4098.2 19951.3,4138.07 19952.6,4146.04C19953.9,4154.01 19952.1,4163.98 19954.8,4172.18C19957.5,4180.37 19967.7,4237.18 19967.7,4237.18L19214.3,4237.18C19214.3,4237.18 19226.2,4198.32 19229.6,4174.78C19233.1,4151.25 19228.6,4147.1 19231,4131.18C19233.4,4115.26 19280.2,4052.62 19285,4034.27C19289.8,4015.93 19287.8,3984.44 19293.3,3970.94C19298.8,3957.44 19310.7,3949.77 19311.3,3947.38C19311.9,3944.98 19309.9,3927.78 19310.5,3925.1C19311,3922.41 19319.1,3889.14 19316.7,3866.43C19314.2,3843.73 19312.2,3837.08 19304.8,3827.12C19297.3,3817.15 19284.5,3806.08 19282.9,3798.05C19281.2,3790.02 19284,3742.12 19284,3742.12C19284,3742.12 19261,3702.8 19259.1,3697.54C19257.1,3692.28 19256.3,3686.74 19256.3,3686.74L19248.8,3685.36C19248.8,3685.36 19209.5,3713.32 19202,3715.82C19194.6,3718.31 19175.5,3733.53 19170.7,3737.41C19166,3741.29 19147.5,3762.33 19142.8,3765.38C19138.1,3768.42 19137,3769.35 19135.3,3768.54C19133.5,3767.74 19133.5,3761.76 19133.5,3761.76C19133.5,3761.76 19051.4,3783.61 19027.2,3782.74C19003,3781.88 19009.4,3767.6 19003,3765.44C18996.5,3763.28 18948.7,3745.15 18893,3695.94C18837.3,3646.73 18795.1,3600.23 18795.1,3600.23C18795.1,3600.23 18816.2,3564 18810.3,3552.64C18804.3,3541.29 18781.2,3544.96 18757.3,3510.35C18733.4,3475.74 18717.1,3396.54 18711.8,3356.41C18706.5,3316.28 18701.9,3292.76 18695.7,3275.46C18689.5,3258.15 18686.7,3265.77 18681.5,3246.04C18676.3,3226.31 18666.6,3164.36 18661.1,3153.29C18655.6,3142.21 18602.3,3110.03 18604.3,3078.19C18606.4,3046.35 18668.4,3007.24 18668.4,3007.24C18668.4,3007.24 18668.6,3007.16 18668.9,3007C18668.8,3006.62 18668.7,3006.42 18668.7,3006.42C18668.7,3006.42 18658.2,2996.21 18652.6,2988.56C18646.9,2980.9 18639.8,2980.9 18624.2,2973.25C18608.6,2965.59 18594.7,2953.69 18578.3,2932.42C18561.9,2911.16 18565.5,2896.7 18549.4,2886.78C18533.2,2876.85 18462.3,2880.82 18451.6,2880.82C18440.8,2880.82 18433.1,2887.06 18422.9,2887.34C18412.6,2887.63 18409,2893.87 18380.1,2892.73C18333,2890.88 18325.1,2864.1 18323.7,2853.61C18322.3,2843.12 18327.7,2828.37 18333.6,2820.72C18339.6,2813.06 18371.9,2805.69 18385.8,2803.99C18397,2802.62 18427.2,2805.41 18427.2,2805.41L18460.4,2806.83C18460.4,2806.83 18468.6,2802.01 18473.4,2801.16C18478.2,2800.31 18486.7,2803.14 18486.7,2803.14C18486.7,2803.14 18513.9,2795.49 18519.3,2793.78C18524.7,2792.08 18526.4,2770.54 18524.7,2765.15C18523,2759.76 18513.4,2755.23 18504.6,2748.99C18495.8,2742.75 18481.3,2740.2 18467.7,2735.38C18454.1,2730.56 18446.7,2720.36 18439.1,2717.52C18431.4,2714.68 18415.6,2715.82 18407.9,2716.1C18400.3,2716.39 18395.7,2720.36 18388.1,2721.21C18380.4,2722.06 18373.6,2722.19 18362.3,2719.22C18350.4,2716.1 18308.1,2692 18332.2,2653.16C18356.3,2614.32 18411.1,2626.81 18419.4,2629.3C18427.8,2631.8 18436.9,2644.5 18451.2,2649.94C18465.5,2655.38 18492.7,2658.79 18503.4,2662.41C18514,2666.04 18522,2677.16 18526,2678.29C18530.1,2679.43 18544.2,2681.01 18551.2,2682.15C18558.3,2683.28 18573.5,2689.18 18573.5,2689.18L18577.1,2686.23L18577.5,2682.15C18578,2678.07 18590.7,2671.94 18590.5,2664.46C18590.2,2656.97 18560.7,2631.57 18553.5,2624.31C18546.2,2617.05 18539.7,2602.54 18532.6,2596.87C18525.6,2591.2 18505.9,2584.39 18499.1,2578.95C18492.3,2573.51 18480.7,2554.23 18474.1,2548.1C18467.5,2541.98 18456.2,2539.03 18448.7,2533.13C18441.2,2527.24 18430.4,2512.68 18426.9,2502.06C18422.8,2489.59 18423.3,2445.81 18454.1,2435.83C18484,2426.18 18519.7,2434.47 18534.4,2450.58C18549.2,2466.68 18560.5,2505.01 18567.1,2512.49C18573.7,2519.98 18594.8,2530.87 18599.1,2534.27C18603.4,2537.67 18609.3,2547.65 18611.8,2551.28C18614.3,2554.91 18645.3,2588.02 18654.9,2592.56C18664.4,2597.09 18690.5,2605.49 18702.1,2601.4C18713.6,2597.32 18712.5,2585.75 18711.8,2578.72C18711.1,2571.69 18700.9,2556.04 18697.3,2546.97C18693.7,2537.9 18674.3,2491.37 18671.1,2487.06C18667.9,2482.75 18670.4,2472.77 18660.2,2462.11C18647.6,2448.9 18633.7,2444.88 18623.2,2429.22C18612.8,2413.58 18614.8,2385 18617.8,2375.02C18620.7,2365.04 18642.1,2339.18 18668.4,2344.62C18694.7,2350.07 18716,2384.77 18722.6,2392.71C18729.2,2400.65 18736.2,2400.87 18740.5,2404.28C18744.8,2407.68 18754.8,2419.02 18760.7,2430.59C18766.6,2442.15 18769.1,2470.5 18773.6,2485.02C18778.1,2499.54 18788.8,2509.29 18793.8,2522.44C18798.8,2535.6 18803.1,2551.48 18806.3,2557.37C18809.4,2563.27 18827.6,2606.82 18836.2,2620.88C18844.8,2634.94 18865.7,2651.05 18877.9,2658.98C18890.2,2666.92 18912.9,2667.38 18926.5,2659.66C18940.1,2651.95 18949.8,2622.47 18949.8,2622.47C18949.8,2622.47 18948.7,2592.98 18949.4,2580.51C18950.1,2568.03 18964.4,2546.71 18975.5,2535.37C19008.4,2501.58 19056.2,2503.16 19068.7,2520.63C19072.4,2525.81 19073.2,2541.32 19069.7,2553.96C19067.2,2562.75 19061.3,2567.57 19058.1,2577.32C19056.3,2582.67 19058.3,2586.2 19056.7,2591.27C19051.5,2608.46 19044,2624.44 19043.7,2626.1C19043.1,2630.41 19046.7,2645.83 19046.5,2649.68C19046.2,2653.54 19037.2,2673.5 19035.3,2676.22C19033.5,2678.94 19028.1,2679.62 19024.9,2680.98C19021.7,2682.35 19018.3,2690.74 19016.1,2694.37C19013.8,2697.99 19002.7,2705.93 19000.9,2710.02C18999.1,2714.1 18999.7,2729.52 18999.5,2732.47C18999.3,2735.42 18960.8,2802.37 18957.2,2807.45C18953.6,2812.53 18945,2847.05 18938.8,2860.78C18933.8,2871.71 18915.7,2910.13 18908.5,2925.37Z" style="fill:white;"/>
                </g>
            </g>
        </g>
    </g>
</svg>
