<?xml version="1.0" encoding="UTF-8" standalone="no"?><!DOCTYPE svg PUBLIC "-//W3C//DTD SVG 1.1//EN" "http://www.w3.org/Graphics/SVG/1.1/DTD/svg11.dtd"><svg width="100%" height="100%" viewBox="0 0 4269 4269" version="1.1" xmlns="http://www.w3.org/2000/svg" xmlns:xlink="http://www.w3.org/1999/xlink" xml:space="preserve" xmlns:serif="http://www.serif.com/" style="fill-rule:evenodd;clip-rule:evenodd;stroke-linejoin:round;stroke-miterlimit:2;"><rect id="action-shape-cyan-400" x="1.257" y="0.382" width="4266.67" height="4266.67" style="fill:none;"/><g id="action-shape-cyan-4001" serif:id="action-shape-cyan-400"><path d="M1765.73,1534.09c20.575,-2.128 36.202,-1.115 44.955,4.02c67.594,39.655 153.215,102.744 170.339,148.708c17.124,45.965 1.802,188.365 10.815,256.861c9.012,68.496 18.926,123.473 31.544,138.794c12.618,15.322 79.311,39.656 94.633,63.99c15.321,24.334 7.21,33.347 18.926,58.582c11.717,25.236 45.965,63.089 48.669,63.089c2.704,-0 8.111,7.21 42.359,-27.939c34.248,-35.15 40.557,-61.286 66.694,-82.015c26.137,-20.729 45.063,-31.545 55.878,-36.952c10.815,-5.408 18.026,3.605 31.544,-8.112c13.519,-11.716 9.914,-48.668 23.433,-56.779c13.519,-8.112 44.162,-4.507 59.484,-6.309c15.321,-1.803 59.483,-3.605 80.212,-10.815c20.729,-7.21 37.853,-30.643 37.853,-30.643c0,-0 7.211,18.025 18.927,19.828c11.716,1.802 62.187,0.901 87.423,12.617c25.235,11.717 110.855,62.188 110.855,62.188c0,-0 45.965,-52.274 63.99,-72.102c10.298,-11.327 38.188,-36.081 60.209,-55.224c-19.938,-19.877 0.022,-33.346 -9.243,-58.963c-9.806,-27.11 -28.264,-29.994 -38.07,-45.567c-9.805,-15.574 -33.455,-30.571 -33.455,-30.571c0,-0 14.997,-11.536 26.534,-20.765c11.536,-9.229 7.498,-16.728 7.498,-16.728l-17.304,-4.038c-0,0 4.614,-7.498 12.69,-21.918c8.075,-14.421 24.802,-40.954 27.686,-59.988c2.884,-19.035 -5.279,-29.312 -5.279,-29.312c0,0 -17.128,1.182 -25.398,0.886c-8.269,-0.295 -17.128,-8.859 -17.128,-8.859c-0,-0 7.678,-1.772 13.289,-3.84c5.611,-2.067 8.269,-10.631 8.269,-10.631c0,-0 -7.973,-0.886 -12.699,-2.068c-4.725,-1.181 -5.906,-2.658 -13.289,-8.859c-7.384,-6.202 -13.29,-6.793 -13.29,-6.793c-0,0 12.404,-2.363 22.445,-4.134c10.041,-1.772 17.719,-21.559 26.579,-38.688c8.86,-17.129 17.424,-70.878 12.699,-83.873c-4.725,-12.994 -46.071,-29.828 -46.071,-29.828l81.806,-6.202l18.014,-28.056c0,0 -23.921,-2.658 -49.614,-14.175c-25.694,-11.518 -41.641,-39.869 -41.641,-39.869c-0,-0 80.624,10.336 106.908,4.134c26.284,-6.202 53.749,-29.237 53.749,-29.237c0,-0 -46.366,-6.202 -58.179,-9.746c-11.813,-3.544 -31.009,-18.605 -31.009,-18.605c-0,-0 18.605,3.544 26.579,3.839c7.974,0.295 24.512,5.02 24.512,5.02c0,0 -8.564,-4.725 -19.196,-9.745c-10.632,-5.021 -15.507,-19.791 -15.507,-19.791c-0,0 33.87,13.155 44.606,16.935c10.735,3.78 27.67,7.107 27.67,7.107c0,-0 1.361,-3.175 7.258,-3.931c5.897,-0.756 15.272,1.209 15.272,1.209c0,0 -27.217,-16.33 -35.685,-21.925c-8.467,-5.594 -16.481,-27.066 -16.481,-27.066c-0,0 47.933,27.52 64.263,33.568c16.33,6.048 45.211,12.55 45.211,12.55c-0,0 0.151,-2.721 4.687,-4.536c4.536,-1.814 16.784,-1.663 16.784,-1.663c0,-0 -37.197,-24.042 -48.386,-30.695c-11.189,-6.653 -23.286,-36.895 -23.286,-36.895c0,0 20.262,7.712 24.798,8.317c4.536,0.604 16.633,9.072 16.633,9.072c-0,0 -0,-3.78 -1.21,-6.199c-1.21,-2.42 -7.56,-4.385 -7.56,-4.385c-0,-0 9.828,-3.025 15.574,0.756c5.746,3.78 14.214,13.608 14.214,13.608c-0,0 -1.664,-8.165 -2.269,-13.004c-0.604,-4.838 3.176,-8.618 3.176,-8.618c-0,-0 16.179,19.505 21.622,26.31c5.444,6.804 11.946,9.828 11.946,9.828c-0,0 1.361,-10.433 2.268,-20.11c0.907,-9.678 14.213,-15.877 14.213,-15.877c0,-0 -5.141,11.794 -3.024,18.598c2.117,6.805 7.712,6.653 7.712,6.653c-0,0 -0.907,-7.257 4.082,-8.165c4.99,-0.907 13.004,5.141 13.004,5.141c0,0 -6.048,-26.915 -6.048,-39.162c-0,-12.248 15.121,-43.397 15.121,-43.397c-0,0 3.175,26.613 5.594,35.685c2.42,9.073 10.585,17.54 10.585,17.54c-0,0 -0,-10.282 3.629,-20.262c3.629,-9.979 11.189,-9.828 11.189,-9.828c0,-0 0.302,-42.489 1.814,-62.449c1.363,-17.985 12.548,-28.358 14.747,-30.234c-1.719,1.879 -8.739,14.766 -7.942,99.638c0.17,18.175 8.165,44.002 8.165,44.002c0,-0 6.653,-14.97 11.945,-21.32c5.293,-6.351 17.087,-7.258 17.087,-7.258c-0,-0 -6.805,21.925 -8.921,30.392c-2.117,8.468 5.897,22.228 5.897,22.228c-0,-0 8.77,-11.795 23.134,-26.008c5.037,-4.984 48.387,-34.173 48.387,-34.173c-0,0 -35.988,38.86 -42.792,43.699c-6.804,4.839 -28.276,29.183 -28.276,29.183l20.716,-9.224l8.014,9.678c-0,-0 14.969,-7.258 57.761,-6.956c42.791,0.303 39.918,8.165 39.918,8.165c0,0 -7.862,1.664 -11.945,1.059c-4.083,-0.605 -11.945,2.419 -11.945,2.419c-0,0 10.886,0.907 15.12,1.966c4.131,1.032 12.248,8.467 12.248,8.467c0,0 -9.828,-1.663 -16.33,0c-5.13,1.312 -12.702,3.024 -12.702,3.024c0,0 13.911,2.722 28.427,3.176c14.516,0.453 32.056,-4.99 43.548,-9.375c12.08,-4.61 42.035,-22.53 42.035,-22.53c0,0 -17.237,25.705 -35.231,32.358c-17.993,6.654 -46.118,9.224 -46.118,9.224c0,0 0.907,4.083 2.873,6.048c1.966,1.966 13.155,3.327 13.155,3.327l-6.2,13.306c0,0 15.575,6.653 26.613,7.409c11.038,0.756 22.379,-3.477 30.241,-3.477c7.863,-0 16.028,5.443 16.028,5.443l-26.763,26.915c-0,-0 37.499,-4.083 45.513,-4.839c8.014,-0.756 36.592,-8.316 36.592,-8.316c0,-0 -10.584,15.423 -14.818,19.657c-4.234,4.234 -17.389,11.794 -17.389,11.794c-0,-0 29.637,3.326 37.499,4.082c7.863,0.756 38.558,0.303 38.558,0.303c0,-0 -8.014,15.574 -14.667,22.076c-6.653,6.502 -13.004,8.77 -13.004,8.77c0,0 31.451,2.419 44.455,4.083c13.004,1.663 30.393,14.062 30.393,14.062c-0,-0 -15.121,3.931 -20.413,4.234c-5.292,0.302 -6.351,6.199 -6.351,6.199c0,0 -2.117,8.165 -8.014,8.619c-5.897,0.454 -8.165,0.907 -8.165,0.907c-0,0 17.994,7.561 24.647,8.921c6.653,1.361 20.11,16.482 20.11,16.482c0,0 -10.736,0.756 -18.598,0.756c-7.863,0 -15.575,3.327 -15.575,3.327c0,-0 16.331,14.364 18.75,18.749c2.419,4.385 0.907,12.551 0.907,12.551l14.97,16.33l-10.887,13.76c-0,-0 17.389,12.701 18.296,15.725c0.907,3.024 -6.804,12.55 -6.804,12.55l24.646,22.228c0,-0 -3.326,6.653 -5.141,8.014c-1.814,1.361 -7.862,6.351 -7.862,6.351c-0,-0 8.618,-1.361 17.388,-1.361c8.77,-0 18.145,-2.873 18.145,-2.873c0,-0 -0.302,9.072 -2.419,12.399c-2.117,3.326 -7.56,9.072 -7.56,9.072l15.876,-1.512c0,0 -11.34,18.75 -14.969,22.379c-3.629,3.629 -20.262,17.389 -20.262,17.389c0,-0 23.437,2.872 35.836,-0c12.399,-2.873 30.544,6.199 30.544,6.199c-0,-0 -24.344,17.54 -31.754,24.647c-6.052,5.805 -27.518,31.754 -27.518,31.754l45.965,20.73c-0,-0 -21.63,29.741 -33.347,47.766c-11.716,18.026 -40.557,99.14 -54.977,116.264c-14.42,17.124 -36.952,20.729 -36.952,20.729c0,-0 -16.223,79.311 -39.655,103.645c-23.433,24.334 -47.767,-2.704 -47.767,-2.704l-1.803,29.742c0,-0 -36.325,4.623 -60.352,0.866c0.047,0.124 0.095,0.248 0.143,0.373c3.155,0.23 49.53,3.701 57.061,9.406c7.796,5.907 43.472,64.264 91.669,90.961c48.198,26.698 130.18,53.631 152.861,72.532c22.682,18.901 50.088,52.687 50.088,52.687c-0,-0 -38.619,44.108 -78.419,68.334c-39.8,24.226 -62.872,34.031 -73.255,43.26c-10.382,9.229 -16.727,15.574 -16.727,15.574c-0,0 22.496,17.881 36.916,44.991c14.42,27.111 24.226,77.293 35.185,104.98c10.96,27.687 27.11,58.835 38.07,75.562c10.959,16.727 92.289,72.678 111.901,114.208c19.611,41.531 1.153,72.102 -2.884,88.252c-4.038,16.151 -2.884,25.38 -2.884,25.38c-0,0 7.489,-0.599 9.615,6.961c2.127,7.561 13.94,117.659 10.868,129.472c-3.071,11.813 -14.648,35.675 -21.972,42.527c-7.324,6.851 -38.038,26.934 -41.346,37.329c-3.307,10.395 23.863,152.293 21.159,185.64c-2.704,33.346 -23.695,50.625 -24.203,80.702c-0.49,29.033 14.131,86.619 15.076,100.795c0.945,14.176 -0.708,34.494 1.418,46.78c2.126,12.285 34.73,51.269 37.802,70.406c3.071,19.137 -14.678,67.585 6.087,169.104c20.765,101.518 69.679,145.817 74.293,165.198c4.615,19.381 20.304,102.442 23.073,119.054c2.768,16.612 -0.923,37.377 4.614,54.451c5.537,17.073 26.764,135.432 26.764,135.432l-1569.43,-0c-0,-0 24.663,-80.971 31.873,-130c7.21,-49.029 -2.163,-57.681 2.884,-90.848c5.047,-33.166 102.384,-163.67 112.478,-201.883c10.094,-38.214 5.768,-103.826 17.304,-131.946c11.536,-28.119 36.328,-44.095 37.538,-49.085c1.209,-4.99 -3.024,-40.826 -1.815,-46.421c1.21,-5.594 18.12,-74.917 12.928,-122.215c-5.191,-47.299 -9.229,-61.142 -24.803,-81.907c-15.573,-20.765 -42.107,-43.838 -45.568,-60.565c-3.46,-16.728 2.308,-116.516 2.308,-116.516c-0,0 -47.875,-81.907 -51.913,-92.866c-4.038,-10.96 -5.768,-22.496 -5.768,-22.496l-15.574,-2.884c-0,0 -81.907,58.258 -97.481,63.449c-15.574,5.192 -55.374,36.916 -65.18,44.991c-9.805,8.076 -48.452,51.913 -58.257,58.258c-9.806,6.345 -11.955,8.271 -15.609,6.598c-3.654,-1.672 -3.778,-14.121 -3.778,-14.121c0,0 -170.986,45.513 -221.456,43.711c-50.471,-1.803 -36.952,-31.545 -50.471,-36.051c-13.519,-4.506 -113.014,-42.268 -229.052,-144.787c-116.038,-102.519 -203.911,-199.405 -203.911,-199.405c-0,-0 43.936,-75.481 31.544,-99.139c-12.392,-23.659 -60.666,-16.003 -110.415,-88.104c-49.75,-72.101 -83.673,-237.101 -94.675,-320.714c-11.001,-83.614 -20.61,-132.601 -33.589,-168.652c-12.978,-36.05 -18.746,-20.188 -29.561,-61.286c-10.815,-41.097 -31.004,-170.158 -42.54,-193.231c-11.536,-23.072 -122.572,-90.126 -118.246,-156.459c4.326,-66.333 133.387,-147.808 133.387,-147.808c0,0 0.4,-0.172 1.177,-0.506c-0.26,-0.79 -0.397,-1.203 -0.397,-1.203c-0,-0 -21.854,-21.264 -33.667,-37.211c-11.813,-15.948 -26.58,-15.948 -59.065,-31.895c-32.486,-15.948 -61.428,-40.755 -95.686,-85.054c-34.258,-44.299 -26.579,-74.422 -60.246,-95.095c-33.667,-20.673 -181.33,-12.404 -203.775,-12.404c-22.445,0 -38.392,12.995 -59.656,13.585c-21.459,0.596 -28.942,13.585 -89.188,11.223c-98.188,-3.851 -114.586,-59.656 -117.54,-81.51c-2.953,-21.854 8.269,-52.568 20.673,-68.516c12.404,-15.947 79.738,-31.304 108.68,-34.848c23.363,-2.861 86.235,2.953 86.235,2.953l69.106,2.953c0,0 17.129,-10.041 27.17,-11.813c10.041,-1.772 27.761,4.135 27.761,4.135c-0,-0 56.702,-15.948 67.925,-19.492c11.222,-3.544 14.766,-48.433 11.222,-59.655c-3.544,-11.223 -23.626,-20.673 -41.936,-33.668c-18.31,-12.994 -48.434,-18.31 -76.785,-28.351c-28.351,-10.041 -43.708,-31.304 -59.656,-37.211c-15.947,-5.906 -49.024,-3.544 -64.971,-2.953c-15.948,0.591 -25.398,8.86 -41.346,10.632c-15.947,1.772 -30.149,2.046 -53.749,-4.135c-24.807,-6.497 -112.814,-56.702 -62.609,-137.622c50.205,-80.919 164.26,-54.91 181.744,-49.713c17.483,5.198 36.384,31.659 66.152,43c29.769,11.34 86.472,18.428 108.68,25.989c22.209,7.56 38.747,30.713 47.252,33.076c8.506,2.363 37.802,5.67 52.45,8.033c14.648,2.362 46.307,14.648 46.307,14.648l7.561,-6.143l0.945,-8.505c0.945,-8.505 27.406,-21.264 26.933,-36.857c-0.472,-15.593 -61.9,-68.515 -77.021,-83.636c-15.12,-15.121 -28.823,-45.362 -43.471,-57.175c-14.649,-11.813 -55.758,-25.989 -69.934,-37.329c-14.175,-11.341 -38.274,-51.505 -51.977,-64.263c-13.703,-12.758 -37.329,-18.901 -52.922,-31.186c-15.593,-12.286 -38.125,-42.621 -45.362,-64.736c-8.506,-25.989 -7.561,-117.185 56.702,-137.976c62.167,-20.113 136.559,-2.835 167.273,30.714c30.714,33.549 54.34,113.405 68.043,128.998c13.703,15.593 57.647,38.274 66.625,45.362c8.978,7.088 21.264,27.879 26.461,35.439c5.198,7.561 69.933,76.549 89.779,85.999c19.846,9.45 74.186,26.934 98.285,18.428c24.098,-8.505 21.736,-32.604 20.318,-47.252c-1.417,-14.648 -22.681,-47.252 -30.241,-66.153c-7.561,-18.901 -47.965,-115.829 -54.581,-124.807c-6.615,-8.978 -1.417,-29.768 -22.681,-51.977c-26.358,-27.53 -55.285,-35.912 -77.021,-68.515c-21.735,-32.604 -17.483,-92.142 -11.34,-112.933c6.143,-20.791 50.56,-74.658 105.372,-63.318c54.813,11.341 99.23,83.636 112.933,100.175c13.703,16.538 28.351,17.01 37.329,24.098c8.978,7.088 29.769,30.714 42.054,54.813c12.286,24.098 17.484,83.163 26.934,113.405c9.45,30.241 31.659,50.559 42.054,77.966c10.396,27.406 19.374,60.482 25.989,72.768c6.615,12.286 44.417,103.01 62.373,132.306c17.956,29.296 61.428,62.845 86.944,79.383c25.516,16.539 72.768,17.484 101.119,1.418c28.351,-16.066 48.67,-77.494 48.67,-77.494c-0,0 -2.363,-61.427 -0.945,-87.416c1.417,-25.989 31.347,-70.404 54.34,-94.032c68.515,-70.405 168.217,-67.098 194.206,-30.713c7.705,10.787 9.458,43.111 2.014,69.439c-5.177,18.312 -17.487,28.357 -24.127,48.657c-3.651,11.161 0.407,18.502 -2.832,29.076c-10.97,35.806 -26.488,69.103 -27.032,72.55c-1.418,8.978 6.142,41.109 5.67,49.142c-0.473,8.033 -19.374,49.615 -23.154,55.285c-3.78,5.67 -15.12,7.088 -21.736,9.923c-6.615,2.835 -13.703,20.318 -18.428,27.879c-4.725,7.56 -27.879,24.098 -31.659,32.604c-3.78,8.505 -2.363,40.636 -2.835,46.779c-0.473,6.143 -80.612,145.631 -88.172,156.216c-7.561,10.584 -25.463,82.489 -38.384,111.098c-10.282,22.767 -48.032,102.808 -63.022,134.551Z" style="fill:#22d3ee;"/></g></svg>