<?xml version="1.0" encoding="UTF-8" standalone="no"?><!DOCTYPE svg PUBLIC "-//W3C//DTD SVG 1.1//EN" "http://www.w3.org/Graphics/SVG/1.1/DTD/svg11.dtd"><svg width="100%" height="100%" viewBox="0 0 1025 1025" version="1.1" xmlns="http://www.w3.org/2000/svg" xmlns:xlink="http://www.w3.org/1999/xlink" xml:space="preserve" xmlns:serif="http://www.serif.com/" style="fill-rule:evenodd;clip-rule:evenodd;stroke-linejoin:round;stroke-miterlimit:2;"><rect id="idle-shape-yellow-200" x="0.473" y="0.392" width="1024" height="1024" style="fill:none;"/><clipPath id="_clip1"><rect id="idle-shape-yellow-2001" serif:id="idle-shape-yellow-200" x="0.473" y="0.392" width="1024" height="1024"/></clipPath><g clip-path="url(#_clip1)"><path d="M574.112,185.427c4.466,-2.919 5.763,-4.413 6.906,-4.97c2.426,-1.184 2.601,-3.689 2.722,-5.791c0.109,-1.888 0.883,-3.018 2.117,-3.819c1.51,-0.981 3.172,-1.074 5.7,-1.146c2.528,-0.072 3.49,-3.293 13.026,-3.958c1.587,-0.111 1.485,0.41 2.409,0.395c0.924,-0.016 0.446,-0.843 1.239,-0.899c3.72,-0.264 4.305,-0.366 4.305,-0.366c0,-0 -1.084,11.106 -1.806,14.266c-0.722,3.16 0.003,41.852 -0.477,43.035c-0.481,1.184 -0.596,5.378 -0.596,5.378c-0,0 43.735,16.401 49.378,18.694c5.644,2.292 43.207,17.437 46.706,18.002c3.499,0.564 7.336,-3.161 10.496,-1.58c3.161,1.58 16.554,27.808 16.554,27.808c0,0 1.411,-0.282 4.092,2.822c2.68,3.104 3.668,8.183 3.668,8.183c-0,-0 -1.129,2.539 -1.27,5.361c-0.141,2.821 1.834,12.133 1.834,12.133l1.411,2.398c0,0 0.988,3.951 -0.141,7.478c-1.129,3.527 -2.822,5.643 -2.822,5.643c0,-0 -0.423,10.722 1.552,12.98c1.975,2.257 3.104,3.527 4.938,6.066c1.834,2.54 5.808,2.289 6.49,3.668c0.682,1.38 -3.527,22.15 -3.527,22.15c-0,0 2.257,3.386 4.091,4.515c1.834,1.129 5.079,5.643 5.502,8.042c0.424,2.398 -1.693,4.514 -2.257,6.772c-0.564,2.257 -0.564,3.809 1.975,8.041c2.54,4.233 7.412,23.257 7.412,23.257l2.644,2.668l-2.205,18.462c0,0 4.396,3.197 5.871,3.571c2.712,5.445 10.387,19.024 10.387,19.024l12.206,15.394c-0,-0 -1.27,9.311 1.975,15.519c3.245,6.208 7.054,8.606 8.041,11.428c0.988,2.821 0.424,6.772 0.424,6.772l4.813,7.745l-8.266,7.922c-0,0 -14.811,18.256 -18.6,25.833c-3.789,7.578 -3.1,9.3 -7.922,17.567c-4.823,8.266 -23.295,37.197 -23.295,37.197l-0.452,14.334c0,0 -14.56,7.111 -19.413,10.948c-4.853,3.838 -10.271,11.061 -14.785,18.284c-4.515,7.224 -13.206,41.084 -13.206,41.084l0,5.982l-1.869,1.334c-0,0 -0.222,4.438 -0.629,5.548c-0.407,1.11 -1.406,1.553 -1.406,1.553c0,0 0.37,1.997 -0.332,3.44c-0.703,1.442 -0.758,1.767 -1.932,2.526c1.354,4.875 -0.542,2.708 -0.993,2.528c-15.35,-24.199 -27.178,-18.51 -27.178,-18.51l-3.251,4.334l2.077,0.812l0.542,1.535l3.16,1.084c-0,-0 0.271,1.535 0.542,2.709c4.334,4.514 6.384,12.148 7.161,14.293c0.777,2.145 -0.249,4.058 -0.249,4.058l3.748,2.645c-0,0 -0.221,3.086 -0,7.936c-4.629,26.233 81.563,201.263 83.547,206.333c1.984,5.071 2.866,6.173 2.866,6.173c0,-0 -7.274,2.645 -14.769,3.968c-7.495,1.322 -44.75,18.737 -44.75,18.737l11.433,41.637l-130.56,-0l-7.627,-19.372l-72.966,-1.543l4.188,20.915c-0,-0 -93.556,0.882 -100.61,-0c0.662,-8.818 -18.649,-123.421 -21.294,-132.018c-9.479,-2.866 -47.175,7.054 -47.175,7.054c0,0 -9.699,40.782 -11.904,48.718c-2.204,7.936 -10.801,61.944 -10.801,61.944l-39.459,-37.255c0.173,-1.098 47.958,-158.129 50.824,-168.71c2.865,-10.581 35.914,-127.37 35.971,-129.739c0.058,-2.369 -1.444,-2.254 -1.849,-4.565c-0.404,-2.312 1.618,-13.233 -0.751,-14.62c-2.369,-1.387 -5.779,-6.068 -5.779,-6.068c0,-0 3.41,-2.774 4.681,-4.161c1.271,-1.387 2.658,-4.738 4.392,-7.454c1.733,-2.716 12.632,-13.996 13.233,-14.736c0.601,-0.74 0.74,-4.9 0.971,-5.871c0.231,-0.971 2.08,-4.623 1.664,-5.548c-0.416,-0.924 -0.046,-1.341 0.832,-1.664c0.879,-0.324 3.19,-3.282 3.19,-3.282c0,-0 -0.37,-7.351 -0.092,-8.461c0.277,-1.109 2.774,-3.605 2.774,-3.605c-0,-0 0.092,-6.935 0.277,-8.044c0.185,-1.11 2.034,-1.48 2.034,-1.48c0,0 -0.878,-15.209 -0.046,-16.042c0.832,-0.832 2.774,-0.416 2.774,-0.416l5.593,-4.669l-0.185,-14.609c0,0 3.606,-1.849 3.56,-5.686c-0.046,-3.837 -4.993,-4.9 -5.224,-7.766c-0.231,-2.867 6.103,-10.911 6.287,-13.916c0.185,-3.005 -4.438,-4.669 -4.576,-6.472c-0.139,-1.803 3.421,-4.762 3.652,-6.564c0.231,-1.803 -0.37,-8.414 -0.231,-9.709c0.138,-1.294 2.82,-2.727 2.82,-2.727c-0,-0 -1.202,-4.623 -1.202,-6.981c-0,-2.358 -0.278,-12.297 -0.278,-12.297l-0.323,-7.305c-0,0 -0.823,-21.829 -0.749,-24.899c0.074,-3.07 -7.697,-13.429 -7.804,-15.052c-0.404,-6.135 0.404,-29.706 0.404,-29.706c-0,-0 -6.321,-10.158 -5.982,-26.862c0.339,-16.704 15.237,-63.092 15.237,-63.092c-0,-0 3.724,0.79 6.095,0.225c2.37,-0.564 8.577,-6.094 13.656,-7.675c5.079,-1.58 15.576,-11.85 15.576,-11.85c-0,-0 -3.725,-4.854 -9.594,-11.964c-5.869,-7.111 -14.108,-13.431 -14.108,-13.431c-13.318,-11.4 -34.085,-18.285 -34.085,-18.285c-0,0 36.568,-15.575 46.387,-18.735c9.82,-3.161 24.831,-12.416 24.831,-12.416c-0,0 5.94,-0.66 10.076,-0.265c-3.448,-1.196 -6.787,-1.652 -7.634,-1.754c-0.134,-0.016 -0.205,-0.023 -0.205,-0.023c-0,-0 -4.057,2.527 -8.101,5.033c-3.51,2.175 -6.932,4.485 -8.653,3.255c-3.703,-2.645 -2.771,-3.973 -2.861,-6.14c-0.091,-2.167 1.354,-8.578 0.18,-10.474c-1.135,-1.833 -5.336,-3.099 -6.647,-7.646c-0.045,-0.156 -0.087,-0.316 -0.125,-0.481c-0.025,-0.109 -0.049,-0.224 -0.071,-0.343c-0.416,-2.24 -0.289,-6.032 -1.227,-8.443c-0.987,-2.54 -4.373,-6.208 -7.054,-6.772c-2.68,-0.564 -3.809,1.552 -5.925,0.987c-2.117,-0.564 -3.951,-2.257 -3.527,-4.514c0.292,-1.559 1.459,-3.994 2.619,-6.373c-3.107,0.196 -9.84,0.683 -12.044,0.469c-3.599,-0.349 -12.26,-1.082 -16.07,-9.97c-3.809,-8.889 0,-20.175 4.233,-24.972c0.726,-0.823 2.975,-2.011 6.233,-3.42l-0.614,-0.356c0,0 -1.027,-1.448 -1.165,-3.159c-0.139,-1.71 0.878,-5.964 0.878,-5.964c-0,0 -7.674,3.699 -11.465,2.867c-3.791,-0.833 -8.599,-6.842 -8.599,-6.842c0,-0 8.137,1.479 11.234,0.046c3.097,-1.433 8.784,-6.38 8.876,-8.044c0.093,-1.664 -0.601,-1.664 -0.508,-3.098c0.092,-1.433 1.849,-2.681 2.357,-3.744c0.509,-1.063 0.231,-3.282 0.231,-3.282c0,-0 -9.985,-2.774 -12.62,-5.086c-2.635,-2.311 -4.993,-4.253 -6.103,-6.01c-1.109,-1.756 -0.138,-5.917 -0.138,-5.917c-0,-0 3.097,5.548 5.963,6.01c2.867,0.462 7.305,0.555 10.032,-0.601c2.728,-1.156 6.195,-2.82 7.674,-4.531c1.48,-1.71 1.803,-2.357 2.682,-2.727c0.878,-0.37 1.618,-2.266 1.618,-2.266c-0,0 -2.774,0.047 -4.669,-1.155c-1.896,-1.202 -3.005,-2.959 -3.005,-2.959c-0,0 4.16,0.693 6.518,0.139c2.358,-0.555 3.375,-1.665 3.375,-1.665c-0,0 -5.178,-3.005 -8.044,-5.917c-2.866,-2.912 -4.484,-7.304 -4.484,-7.304c-0,-0 4.345,3.606 7.304,4.53c2.959,0.925 7.674,0.879 9.431,0.37c1.756,-0.508 12.253,-13.254 20.153,-17.627c7.901,-4.374 12.98,-7.619 20.88,-10.44c7.901,-2.822 13.968,-3.104 17.071,-3.104c3.104,0 4.938,-1.27 7.76,-1.27c2.821,0 28.796,-0.512 32.59,-0.141c10.671,1.044 25.254,5.785 25.254,5.785c-0,-0 0.327,-3.945 -4.007,-6.022c-4.334,-2.077 -7.946,-3.431 -7.946,-3.431c0,0 6.772,-2.257 11.287,0.452c4.514,2.708 11.015,7.494 13.092,10.744c2.077,3.251 3.522,11.377 3.522,11.377c-0,0 1.173,1.355 2.257,-0.18c1.083,-1.535 3.284,-3.52 3.284,-3.52c0,0 -1.664,3.551 -1.738,4.142c-0.074,0.592 -0.074,2.035 -0.074,2.035c-0,-0 2.959,-0.037 4.327,0.184c1.368,0.222 3.587,0.888 3.587,0.888c0,0 -3.957,1.479 -4.142,2.626c-0.185,1.146 0,1.886 0,1.886c0,0 3.218,-0.074 4.142,0.629c0.925,0.703 3.884,3.772 5.141,4.512c1.258,0.74 4.808,4.919 9.505,4.105c4.697,-0.814 7.915,-3.476 7.915,-3.476c-0,-0 -2.515,8.654 -6.399,9.541c-3.883,0.888 -6.139,-0.037 -6.139,-0.037c-0,0 4.253,4.217 4.771,5.881c0.518,1.664 2.959,4.734 2.959,4.734c-0,-0 -2.811,0.666 -2.219,7.249c0.591,6.583 8.099,11.28 8.099,11.28c0,-0 -4.438,1.072 -5.104,1.923c-0.665,0.851 -0.386,5.903 -1.541,12.896c-1.156,6.992 -7.802,19.994 -7.802,19.994c0,0 -0.289,1.271 1.214,1.792c1.502,0.52 4.392,-0.058 4.392,-0.058c-0,-0 -2.427,3.698 -3.93,4.334c-1.502,0.635 -2.658,2.253 -2.658,2.253c-0,0 1.965,2.254 1.618,3.468c-0.347,1.213 -2.08,5.027 -3.294,5.085c-1.214,0.058 -1.734,0.693 -1.734,1.907c0,1.214 3.872,5.027 3.872,5.027c0,0 -4.565,-0.462 -5.374,0.636c-0.809,1.098 -0.925,2.254 -0,3.583c0.925,1.329 3.12,2.6 4.103,4.565c0.982,1.965 2.022,6.241 2.022,6.241c0,0 -2.427,-3.236 -6.183,-4.218c-3.756,-0.983 -4.738,-0.058 -4.738,-0.058c-0,-0 0.346,1.907 1.444,3.005c1.098,1.098 4.219,2.369 4.219,2.369l0.375,4.466Zm-17.204,9.438c4.656,-2.262 8.347,-4.207 11.295,-5.871l-1.863,-2.196c-0,-0 -3.93,-1.041 -8.09,-0.463c-1.835,0.255 -3.625,0.926 -5.053,1.596c0.082,0.383 0.176,0.721 0.282,1.01c0.898,2.444 2.122,4.353 3.429,5.924Zm68.325,432.788c-0,0 10.581,-4.232 13.579,-12.168c2.998,-7.936 -3.176,-9.539 -1.789,-12.544c1.387,-3.004 15.14,-5.663 15.14,-5.663c0,0 -0.231,-8.552 0.347,-10.69c0.578,-2.138 4.565,-10.344 4.565,-10.344c0,-0 7.686,0.52 8.437,0.289c0.751,-0.231 2.369,-3.41 2.369,-3.41l0,-8.437c0,0 5.259,-6.067 6.53,-7.974c1.272,-1.907 12.54,-18.492 12.309,-20.515c-0.231,-2.022 -3.005,-4.045 -2.947,-6.183c0.058,-2.138 2.947,-3.294 3.294,-4.219c0.347,-0.924 3.294,-4.796 3.929,-6.183c0.636,-1.387 3.872,-6.125 3.872,-6.125c0,-0 0.174,-7.397 -1.676,-10.055c-1.849,-2.658 -3.12,-4.681 -3.12,-4.681l-0.058,-7.455c0,0 -2.138,-1.907 -2.889,-3.293c-0.752,-1.387 -0.52,-2.948 -0.52,-2.948l-7.744,-7.57c0,0 -8.264,-4.16 -8.668,-6.472c-0.405,-2.311 1.213,-4.392 1.502,-6.183c0.289,-1.792 0.116,-4.97 0.116,-4.97l-2.311,-2.138l0.231,-1.387c-0,0 -4.392,-5.259 -5.49,-5.316c-1.098,-0.058 -6.472,8.494 -6.472,8.494l-0.694,18.319c0,-0 -15.313,14.678 -15.429,16.123c-0.116,1.444 6.068,10.112 5.201,13.695c-0.867,3.583 -23.808,18.839 -24.271,21.439c-0.462,2.601 1.156,1.098 1.56,2.196c0.405,1.098 -0.924,17.972 0.289,21.266c1.214,3.294 2.716,9.073 2.716,9.535c0,0.462 -6.761,11.268 -6.818,13.927c-0.058,2.658 1.618,2.773 1.618,2.773c-0,0 -0,7.397 -0.232,9.073c-0.231,1.676 -1.04,0.578 -1.098,5.605c-0.057,5.028 3.063,9.304 3.063,9.304c0,0 1.618,6.299 1.503,9.94c-0.116,3.64 0.056,14.945 0.056,14.945Z" style="fill:#fef08a;"/></g></svg>