<?xml version="1.0" encoding="UTF-8" standalone="no"?>
<!DOCTYPE svg PUBLIC "-//W3C//DTD SVG 1.1//EN" "http://www.w3.org/Graphics/SVG/1.1/DTD/svg11.dtd">
<svg width="100%" height="100%" viewBox="0 0 2049 2048" version="1.1" xmlns="http://www.w3.org/2000/svg" xmlns:xlink="http://www.w3.org/1999/xlink" xml:space="preserve" xmlns:serif="http://www.serif.com/" style="fill-rule:evenodd;clip-rule:evenodd;stroke-linejoin:round;stroke-miterlimit:2;">
    <g transform="matrix(1,0,0,1,-22463,0)">
        <g transform="matrix(1,0,0,1,20239.1,5.68434e-14)">
            <rect id="idle-shape-yellow-300" x="2223.96" y="0" width="2048" height="2048" style="fill:none;"/>
            <clipPath id="_clip1">
                <rect id="idle-shape-yellow-3001" serif:id="idle-shape-yellow-300" x="2223.96" y="0" width="2048" height="2048"/>
            </clipPath>
            <g clip-path="url(#_clip1)">
                <g transform="matrix(1,0,0,1,-15899.1,-5.68434e-14)">
                    <path d="M19270.3,370.069C19279.3,364.232 19281.9,361.245 19284.2,360.129C19289,357.762 19289.4,352.753 19289.6,348.548C19289.8,344.772 19291.4,342.513 19293.8,340.91C19296.9,338.949 19300.2,338.762 19305.2,338.618C19310.3,338.473 19312.2,332.032 19331.3,330.701C19334.5,330.48 19334.3,331.522 19336.1,331.491C19338,331.461 19337,329.807 19338.6,329.694C19346,329.165 19347.2,328.962 19347.2,328.962C19347.2,328.962 19345,351.174 19343.6,357.495C19342.1,363.815 19343.6,441.197 19342.6,443.564C19341.7,445.931 19341.4,454.32 19341.4,454.32C19341.4,454.32 19428.9,487.122 19440.2,491.707C19451.5,496.292 19526.6,526.583 19533.6,527.712C19540.6,528.84 19548.3,521.391 19554.6,524.551C19560.9,527.712 19587.7,580.169 19587.7,580.169C19587.7,580.169 19590.5,579.604 19595.9,585.812C19601.3,592.02 19603.2,602.177 19603.2,602.177C19603.2,602.177 19601,607.256 19600.7,612.9C19600.4,618.543 19604.4,637.166 19604.4,637.166L19607.2,641.963C19607.2,641.963 19609.2,649.863 19606.9,656.918C19604.6,663.972 19601.3,668.204 19601.3,668.204C19601.3,668.204 19600.4,689.649 19604.4,694.163C19608.3,698.678 19610.6,701.217 19614.2,706.296C19617.9,711.375 19625.8,710.873 19627.2,713.633C19628.6,716.392 19620.2,757.933 19620.2,757.933C19620.2,757.933 19624.7,764.705 19628.3,766.962C19632,769.219 19638.5,778.249 19639.3,783.045C19640.2,787.842 19636,792.075 19634.8,796.589C19633.7,801.104 19633.7,804.208 19638.8,812.673C19643.9,821.138 19653.6,859.186 19653.6,859.186L19658.9,864.522L19654.5,901.446C19654.5,901.446 19663.3,907.841 19666.2,908.588C19671.6,919.479 19687,946.637 19687,946.637L19711.4,977.424C19711.4,977.424 19708.9,996.047 19715.4,1008.46C19721.8,1020.88 19729.5,1025.67 19731.4,1031.32C19733.4,1036.96 19732.3,1044.86 19732.3,1044.86L19741.9,1060.35L19725.4,1076.2C19725.4,1076.2 19695.8,1112.71 19688.2,1127.86C19680.6,1143.02 19682,1146.46 19672.3,1163C19662.7,1179.53 19625.7,1237.39 19625.7,1237.39L19624.8,1266.06C19624.8,1266.06 19595.7,1280.28 19586,1287.95C19576.3,1295.63 19565.5,1310.08 19556.4,1324.52C19547.4,1338.97 19530,1406.69 19530,1406.69L19530,1418.65L19526.3,1421.32C19526.3,1421.32 19525.9,1430.2 19525,1432.42C19524.2,1434.64 19522.2,1435.53 19522.2,1435.53C19522.2,1435.53 19523,1439.52 19521.6,1442.4C19520.2,1445.29 19520,1445.94 19517.7,1447.45C19520.4,1457.21 19516.6,1452.87 19515.7,1452.51C19485,1404.12 19461.4,1415.49 19461.4,1415.49L19454.9,1424.16L19459,1425.79L19460.1,1428.86L19466.4,1431.02C19466.4,1431.02 19467,1434.09 19467.5,1436.44C19476.2,1445.47 19480.3,1460.74 19481.8,1465.03C19483.4,1469.32 19481.3,1473.14 19481.3,1473.14L19488.8,1478.43C19488.8,1478.43 19488.4,1484.61 19488.8,1494.3C19479.6,1546.77 19651.9,1896.83 19655.9,1906.97C19659.9,1917.11 19661.6,1919.32 19661.6,1919.32C19661.6,1919.32 19647.1,1924.61 19632.1,1927.25C19617.1,1929.9 19542.6,1964.73 19542.6,1964.73L19565.5,2048L19304.4,2048L19289.1,2009.26L19143.2,2006.17L19151.5,2048C19151.5,2048 18964.4,2049.76 18950.3,2048C18951.6,2030.37 18913,1801.16 18907.7,1783.97C18888.8,1778.23 18813.4,1798.07 18813.4,1798.07C18813.4,1798.07 18794,1879.64 18789.6,1895.51C18785.2,1911.38 18768,2019.4 18768,2019.4L18689.1,1944.89C18689.4,1942.69 18785,1628.63 18790.7,1607.47C18796.4,1586.3 18862.5,1352.73 18862.6,1347.99C18862.8,1343.25 18859.8,1343.48 18858.9,1338.86C18858.1,1334.24 18862.2,1312.39 18857.4,1309.62C18852.7,1306.84 18845.9,1297.48 18845.9,1297.48C18845.9,1297.48 18852.7,1291.93 18855.2,1289.16C18857.8,1286.39 18860.6,1279.68 18864,1274.25C18867.5,1268.82 18889.3,1246.26 18890.5,1244.78C18891.7,1243.3 18892,1234.98 18892.4,1233.04C18892.9,1231.1 18896.6,1223.79 18895.8,1221.94C18894.9,1220.09 18895.7,1219.26 18897.4,1218.61C18899.2,1217.97 18903.8,1212.05 18903.8,1212.05C18903.8,1212.05 18903.1,1197.35 18903.6,1195.13C18904.2,1192.91 18909.2,1187.92 18909.2,1187.92C18909.2,1187.92 18909.4,1174.05 18909.7,1171.83C18910.1,1169.61 18913.8,1168.87 18913.8,1168.87C18913.8,1168.87 18912,1138.45 18913.7,1136.79C18915.4,1135.12 18919.3,1135.95 18919.3,1135.95L18930.4,1126.62L18930.1,1097.4C18930.1,1097.4 18937.3,1093.7 18937.2,1086.03C18937.1,1078.35 18927.2,1076.23 18926.7,1070.49C18926.3,1064.76 18938.9,1048.67 18939.3,1042.66C18939.7,1036.65 18930.4,1033.32 18930.2,1029.72C18929.9,1026.11 18937,1020.2 18937.5,1016.59C18937.9,1012.98 18936.7,999.762 18937,997.173C18937.3,994.584 18942.6,991.718 18942.6,991.718C18942.6,991.718 18940.2,982.472 18940.2,977.756C18940.2,973.041 18939.7,953.162 18939.7,953.162L18939,938.553C18939,938.553 18937.4,894.894 18937.5,888.754C18937.7,882.615 18922.2,861.897 18921.9,858.649C18921.1,846.38 18922.7,799.238 18922.7,799.238C18922.7,799.238 18910.1,778.922 18910.8,745.514C18911.5,712.105 18941.3,619.33 18941.3,619.33C18941.3,619.33 18948.7,620.91 18953.4,619.781C18958.2,618.652 18970.6,607.591 18980.8,604.431C18990.9,601.271 19011.9,580.729 19011.9,580.729C19011.9,580.729 19004.5,571.023 18992.7,556.802C18981,542.581 18964.5,529.94 18964.5,529.94C18937.9,507.141 18896.3,493.371 18896.3,493.371C18896.3,493.371 18969.5,462.22 18989.1,455.9C19008.7,449.579 19038.8,431.069 19038.8,431.069C19038.8,431.069 19050.7,429.749 19058.9,430.537C19052,428.146 19045.3,427.235 19043.7,427.03C19043.4,426.998 19043.2,426.984 19043.2,426.984C19043.2,426.984 19035.1,432.037 19027,437.049C19020,441.401 19013.2,446.019 19009.7,443.561C19002.3,438.27 19004.2,435.614 19004,431.28C19003.8,426.946 19006.7,414.124 19004.4,410.332C19002.1,406.666 18993.7,404.134 18991.1,395.041C18991,394.728 18990.9,394.408 18990.8,394.079C18990.8,393.859 18990.7,393.63 18990.7,393.392C18989.9,388.913 18990.1,381.328 18988.2,376.506C18986.3,371.427 18979.5,364.091 18974.1,362.962C18968.8,361.833 18966.5,366.066 18962.3,364.937C18958,363.808 18954.4,360.422 18955.2,355.908C18955.8,352.789 18958.1,347.92 18960.5,343.161C18954.2,343.555 18940.8,344.528 18936.4,344.1C18929.2,343.401 18911.9,341.936 18904.2,324.16C18896.6,306.383 18904.2,283.81 18912.7,274.216C18914.2,272.571 18918.6,270.195 18925.2,267.375L18923.9,266.665C18923.9,266.665 18921.9,263.767 18921.6,260.346C18921.3,256.925 18923.4,248.419 18923.4,248.419C18923.4,248.419 18908,255.816 18900.4,254.151C18892.9,252.487 18883.2,240.467 18883.2,240.467C18883.2,240.467 18899.5,243.426 18905.7,240.56C18911.9,237.694 18923.3,227.8 18923.5,224.472C18923.6,221.143 18922.3,221.143 18922.4,218.277C18922.6,215.411 18926.1,212.914 18927.2,210.788C18928.2,208.661 18927.6,204.223 18927.6,204.223C18927.6,204.223 18907.6,198.676 18902.4,194.053C18897.1,189.43 18892.4,185.546 18890.2,182.033C18888,178.519 18889.9,170.198 18889.9,170.198C18889.9,170.198 18896.1,181.293 18901.8,182.218C18907.6,183.142 18916.4,183.327 18921.9,181.016C18927.3,178.704 18934.3,175.376 18937.2,171.955C18940.2,168.534 18940.8,167.239 18942.6,166.5C18944.4,165.76 18945.8,161.969 18945.8,161.969C18945.8,161.969 18940.3,162.062 18936.5,159.658C18932.7,157.254 18930.5,153.74 18930.5,153.74C18930.5,153.74 18938.8,155.127 18943.5,154.018C18948.2,152.908 18950.3,150.689 18950.3,150.689C18950.3,150.689 18939.9,144.679 18934.2,138.854C18928.4,133.029 18925.2,124.246 18925.2,124.246C18925.2,124.246 18933.9,131.457 18939.8,133.307C18945.7,135.156 18955.2,135.063 18958.7,134.046C18962.2,133.029 18983.2,107.539 18999,98.792C19014.8,90.045 19024.9,83.555 19040.7,77.912C19056.5,72.269 19068.7,71.704 19074.9,71.704C19081.1,71.704 19084.8,69.165 19090.4,69.165C19096.1,69.165 19148,68.14 19155.6,68.883C19176.9,70.971 19206.1,80.451 19206.1,80.451C19206.1,80.451 19206.8,72.562 19198.1,68.409C19189.4,64.255 19182.2,61.546 19182.2,61.546C19182.2,61.546 19195.7,57.032 19204.8,62.449C19213.8,67.867 19226.8,77.438 19231,83.939C19235.1,90.44 19238,106.693 19238,106.693C19238,106.693 19240.3,109.401 19242.5,106.331C19244.7,103.262 19249.1,99.293 19249.1,99.293C19249.1,99.293 19245.7,106.394 19245.6,107.577C19245.5,108.761 19245.5,111.645 19245.5,111.645C19245.5,111.645 19251.4,111.571 19254.1,112.015C19256.8,112.459 19261.3,113.79 19261.3,113.79C19261.3,113.79 19253.4,116.749 19253,119.042C19252.6,121.335 19253,122.814 19253,122.814C19253,122.814 19259.4,122.666 19261.3,124.072C19263.1,125.477 19269,131.617 19271.6,133.096C19274.1,134.575 19281.2,142.934 19290.6,141.306C19300,139.679 19306.4,134.353 19306.4,134.353C19306.4,134.353 19301.4,151.662 19293.6,153.437C19285.8,155.212 19281.3,153.363 19281.3,153.363C19281.3,153.363 19289.8,161.795 19290.9,165.124C19291.9,168.453 19296.8,174.592 19296.8,174.592C19296.8,174.592 19291.2,175.923 19292.3,189.09C19293.5,202.256 19308.5,211.65 19308.5,211.65C19308.5,211.65 19299.7,213.795 19298.3,215.496C19297,217.197 19297.6,227.303 19295.3,241.288C19292.9,255.272 19279.7,281.276 19279.7,281.276C19279.7,281.276 19279.1,283.819 19282.1,284.859C19285.1,285.899 19290.9,284.744 19290.9,284.744C19290.9,284.744 19286,292.14 19283,293.412C19280,294.683 19277.7,297.919 19277.7,297.919C19277.7,297.919 19281.6,302.427 19280.9,304.854C19280.2,307.281 19276.8,314.909 19274.3,315.024C19271.9,315.14 19270.9,316.411 19270.9,318.838C19270.9,321.265 19278.6,328.893 19278.6,328.893C19278.6,328.893 19269.5,327.969 19267.9,330.164C19266.2,332.36 19266,334.672 19267.9,337.33C19269.7,339.988 19274.1,342.531 19276.1,346.461C19278,350.39 19280.1,358.943 19280.1,358.943C19280.1,358.943 19275.3,352.47 19267.7,350.506C19260.2,348.541 19258.3,350.39 19258.3,350.39C19258.3,350.39 19259,354.204 19261.2,356.4C19263.4,358.596 19269.6,361.138 19269.6,361.138L19270.3,370.069ZM19235.9,388.946C19245.3,384.422 19252.6,380.532 19258.5,377.204L19254.8,372.812C19254.8,372.812 19246.9,370.731 19238.6,371.887C19235,372.397 19231.4,373.738 19228.5,375.078C19228.7,375.845 19228.9,376.521 19229.1,377.099C19230.9,381.986 19233.3,385.805 19235.9,388.946ZM19372.6,1254.52C19372.6,1254.52 19393.8,1246.06 19399.7,1230.19C19405.7,1214.31 19393.4,1211.11 19396.2,1205.1C19398.9,1199.09 19426.5,1193.77 19426.5,1193.77C19426.5,1193.77 19426,1176.67 19427.1,1172.39C19428.3,1168.12 19436.3,1151.7 19436.3,1151.7C19436.3,1151.7 19451.6,1152.74 19453.1,1152.28C19454.7,1151.82 19457.9,1145.46 19457.9,1145.46L19457.9,1128.59C19457.9,1128.59 19468.4,1116.45 19470.9,1112.64C19473.5,1108.83 19496,1075.66 19495.6,1071.61C19495.1,1067.57 19489.6,1063.52 19489.7,1059.24C19489.8,1054.97 19495.6,1052.66 19496.3,1050.81C19497,1048.96 19502.8,1041.21 19504.1,1038.44C19505.4,1035.67 19511.9,1026.19 19511.9,1026.19C19511.9,1026.19 19512.2,1011.4 19508.5,1006.08C19504.8,1000.76 19502.3,996.718 19502.3,996.718L19502.2,981.809C19502.2,981.809 19497.9,977.995 19496.4,975.221C19494.9,972.447 19495.3,969.327 19495.3,969.327L19479.8,954.187C19479.8,954.187 19463.3,945.865 19462.5,941.242C19461.7,936.619 19464.9,932.459 19465.5,928.876C19466.1,925.293 19465.7,918.936 19465.7,918.936L19461.1,914.66L19461.6,911.886C19461.6,911.886 19452.8,901.369 19450.6,901.253C19448.4,901.138 19437.7,918.243 19437.7,918.243L19436.3,954.88C19436.3,954.88 19405.6,984.236 19405.4,987.125C19405.2,990.015 19417.6,1007.35 19415.8,1014.52C19414.1,1021.68 19368.2,1052.19 19367.3,1057.39C19366.4,1062.6 19369.6,1059.59 19370.4,1061.79C19371.2,1063.98 19368.5,1097.73 19371,1104.32C19373.4,1110.91 19376.4,1122.46 19376.4,1123.39C19376.4,1124.31 19362.9,1145.92 19362.8,1151.24C19362.7,1156.56 19366,1156.79 19366,1156.79C19366,1156.79 19366,1171.58 19365.5,1174.93C19365.1,1178.29 19363.5,1176.09 19363.3,1186.14C19363.2,1196.2 19369.5,1204.75 19369.5,1204.75C19369.5,1204.75 19372.7,1217.35 19372.5,1224.63C19372.2,1231.91 19372.6,1254.52 19372.6,1254.52Z" style="fill:rgb(253,224,71);"/>
                </g>
            </g>
        </g>
    </g>
</svg>
