<?xml version="1.0" encoding="UTF-8" standalone="no"?><!DOCTYPE svg PUBLIC "-//W3C//DTD SVG 1.1//EN" "http://www.w3.org/Graphics/SVG/1.1/DTD/svg11.dtd"><svg width="100%" height="100%" viewBox="0 0 4269 4269" version="1.1" xmlns="http://www.w3.org/2000/svg" xmlns:xlink="http://www.w3.org/1999/xlink" xml:space="preserve" xmlns:serif="http://www.serif.com/" style="fill-rule:evenodd;clip-rule:evenodd;stroke-linejoin:round;stroke-miterlimit:2;"><rect id="idle-shape-yellow-400" x="0.903" y="1.633" width="4266.67" height="4266.67" style="fill:none;"/><clipPath id="_clip1"><rect id="idle-shape-yellow-4001" serif:id="idle-shape-yellow-400" x="0.903" y="1.633" width="4266.67" height="4266.67"/></clipPath><g clip-path="url(#_clip1)"><path d="M2391.07,772.61c18.607,-12.16 24.01,-18.384 28.774,-20.708c10.109,-4.931 10.837,-15.367 11.342,-24.128c0.453,-7.865 3.681,-12.572 8.823,-15.912c6.292,-4.086 13.214,-4.474 23.748,-4.775c10.534,-0.301 14.542,-13.721 54.277,-16.493c6.611,-0.461 6.185,1.709 10.036,1.646c3.85,-0.063 1.856,-3.51 5.163,-3.745c15.5,-1.101 17.937,-1.524 17.937,-1.524c-0,-0 -4.515,46.275 -7.524,59.442c-3.01,13.168 0.013,174.381 -1.99,179.312c-2.003,4.931 -2.484,22.409 -2.484,22.409c0,-0 182.232,68.337 205.746,77.889c23.513,9.553 180.027,72.658 194.605,75.009c14.579,2.351 30.568,-13.168 43.736,-6.584c13.168,6.584 68.975,115.869 68.975,115.869c-0,0 5.878,-1.175 17.047,11.757c11.169,12.933 15.284,34.095 15.284,34.095c0,0 -4.703,10.581 -5.29,22.338c-0.588,11.757 7.642,50.555 7.642,50.555l5.878,9.993c-0,0 4.115,16.46 -0.588,31.156c-4.703,14.696 -11.757,23.514 -11.757,23.514c0,-0 -1.763,44.676 6.466,54.082c8.23,9.405 12.933,14.696 20.575,25.277c7.642,10.581 24.198,9.535 27.041,15.284c2.842,5.749 -14.696,92.291 -14.696,92.291c-0,0 9.405,14.109 17.047,18.811c7.642,4.703 21.163,23.514 22.926,33.507c1.764,9.994 -7.054,18.811 -9.405,28.217c-2.352,9.405 -2.352,15.872 8.229,33.507c10.582,17.635 30.885,96.903 30.885,96.903l11.013,11.117l-9.185,76.925c-0,0 18.317,13.322 24.462,14.879c11.297,22.688 43.277,79.268 43.277,79.268l50.858,64.139c0,0 -5.29,38.798 8.23,64.663c13.52,25.866 29.392,35.859 33.507,47.616c4.115,11.757 1.764,28.216 1.764,28.216l20.055,32.274l-34.444,33.009c0,0 -61.712,76.064 -77.499,107.638c-15.787,31.573 -12.916,38.749 -33.009,73.193c-20.092,34.444 -97.062,154.989 -97.062,154.989l-1.881,59.725c-0,-0 -60.666,29.627 -80.888,45.616c-20.222,15.99 -42.795,46.087 -61.606,76.185c-18.811,30.098 -55.022,171.18 -55.022,171.18l-0,24.925l-7.791,5.561c0,0 -0.924,18.492 -2.62,23.115c-1.695,4.623 -5.855,6.473 -5.855,6.473c-0,-0 1.541,8.321 -1.387,14.331c-2.928,6.01 -3.157,7.363 -8.048,10.524c5.643,20.316 -2.257,11.286 -4.138,10.534c-63.958,-100.827 -113.243,-77.125 -113.243,-77.125l-13.544,18.058l8.653,3.386l2.258,6.396l13.167,4.515c0,-0 1.129,6.395 2.258,11.286c18.058,18.811 26.603,50.617 29.839,59.555c3.236,8.938 -1.036,16.908 -1.036,16.908l15.614,11.022c0,0 -0.918,12.859 0,33.066c-19.288,109.303 339.848,838.598 348.115,859.723c8.266,21.126 11.94,25.719 11.94,25.719c0,-0 -30.31,11.022 -61.54,16.533c-31.229,5.511 -186.457,78.073 -186.457,78.073l47.639,173.486l-544,-0l-31.78,-80.717l-304.026,-6.43l17.451,87.147c0,-0 -389.814,3.674 -419.206,-0c2.755,-36.741 -77.706,-514.252 -88.728,-550.074c-39.496,-11.941 -196.561,29.392 -196.561,29.392c0,0 -40.414,169.924 -49.599,202.99c-9.185,33.066 -45.007,258.101 -45.007,258.101l-164.413,-155.228c0.722,-4.575 199.827,-658.872 211.767,-702.96c11.941,-44.089 149.641,-530.707 149.882,-540.579c0.241,-9.872 -6.019,-9.39 -7.705,-19.022c-1.685,-9.631 6.742,-55.138 -3.13,-60.917c-9.872,-5.779 -24.078,-25.282 -24.078,-25.282c-0,-0 14.206,-11.558 19.503,-17.336c5.297,-5.779 11.076,-19.744 18.299,-31.061c7.224,-11.317 52.635,-58.317 55.139,-61.399c2.504,-3.082 3.082,-20.418 4.045,-24.464c0.963,-4.045 8.668,-19.262 6.935,-23.115c-1.734,-3.852 -0.193,-5.586 3.467,-6.934c3.66,-1.348 13.291,-13.676 13.291,-13.676c0,-0 -1.541,-30.628 -0.385,-35.251c1.156,-4.623 11.557,-15.024 11.557,-15.024c0,-0 0.386,-28.894 1.156,-33.517c0.771,-4.623 8.476,-6.164 8.476,-6.164c-0,-0 -3.66,-63.374 -0.193,-66.841c3.467,-3.467 11.557,-1.733 11.557,-1.733l23.308,-19.456l-0.77,-60.869c-0,0 15.024,-7.705 14.832,-23.693c-0.193,-15.988 -20.804,-20.418 -21.767,-32.361c-0.963,-11.942 25.427,-45.459 26.197,-57.98c0.771,-12.52 -18.492,-19.455 -19.07,-26.967c-0.578,-7.513 14.254,-19.841 15.218,-27.353c0.963,-7.512 -1.541,-35.058 -0.964,-40.451c0.578,-5.394 11.751,-11.365 11.751,-11.365c-0,0 -5.009,-19.262 -5.009,-29.086c0,-9.824 -1.155,-51.238 -1.155,-51.238l-1.349,-30.435c0,-0 -3.429,-90.957 -3.12,-103.748c0.308,-12.79 -32.069,-55.953 -32.515,-62.718c-1.686,-25.562 1.681,-123.774 1.681,-123.774c0,-0 -26.335,-42.325 -24.924,-111.926c1.411,-69.6 63.487,-262.883 63.487,-262.883c-0,-0 15.519,3.292 25.395,0.94c9.875,-2.351 35.741,-25.395 56.903,-31.978c21.162,-6.584 64.898,-49.379 64.898,-49.379c-0,-0 -15.519,-20.222 -39.974,-49.849c-24.454,-29.628 -58.784,-55.963 -58.784,-55.963c-55.492,-47.498 -142.023,-76.185 -142.023,-76.185c0,0 152.369,-64.898 193.283,-78.065c40.914,-13.168 103.461,-51.731 103.461,-51.731c-0,0 24.75,-2.75 41.985,-1.107c-14.368,-4.982 -28.282,-6.881 -31.81,-7.307c-0.557,-0.067 -0.855,-0.097 -0.855,-0.097c0,-0 -16.905,10.528 -33.753,20.97c-14.626,9.066 -28.882,18.688 -36.053,13.566c-15.431,-11.022 -11.548,-16.556 -11.924,-25.586c-0.376,-9.029 5.643,-35.741 0.752,-43.641c-4.728,-7.638 -22.235,-12.913 -27.696,-31.856c-0.188,-0.652 -0.362,-1.319 -0.52,-2.004c-0.106,-0.458 -0.205,-0.935 -0.297,-1.431c-1.732,-9.333 -1.204,-25.133 -5.111,-35.18c-4.115,-10.581 -18.224,-25.865 -29.393,-28.217c-11.169,-2.351 -15.871,6.467 -24.689,4.115c-8.818,-2.351 -16.46,-9.405 -14.696,-18.811c1.218,-6.497 6.083,-16.64 10.912,-26.555c-12.946,0.82 -40.997,2.848 -50.182,1.956c-14.997,-1.455 -51.085,-4.509 -66.957,-41.543c-15.871,-37.034 0,-84.061 17.636,-104.048c3.025,-3.428 12.398,-8.379 25.971,-14.252l-2.557,-1.48c-0,0 -4.279,-6.037 -4.857,-13.164c-0.578,-7.127 3.66,-24.849 3.66,-24.849c0,0 -31.976,15.41 -47.771,11.943c-15.795,-3.467 -35.828,-28.508 -35.828,-28.508c0,-0 33.902,6.164 46.808,0.192c12.906,-5.971 36.598,-26.582 36.984,-33.516c0.385,-6.935 -2.504,-6.935 -2.119,-12.906c0.385,-5.971 7.705,-11.172 9.824,-15.603c2.118,-4.43 0.963,-13.676 0.963,-13.676c-0,-0 -41.607,-11.557 -52.587,-21.189c-10.979,-9.631 -20.803,-17.721 -25.426,-25.041c-4.623,-7.32 -0.578,-24.656 -0.578,-24.656c-0,0 12.906,23.115 24.849,25.041c11.942,1.927 30.434,2.312 41.799,-2.504c11.365,-4.815 25.812,-11.75 31.976,-18.877c6.164,-7.127 7.512,-9.824 11.172,-11.365c3.66,-1.541 6.742,-9.438 6.742,-9.438c-0,-0 -11.558,0.192 -19.455,-4.816c-7.898,-5.008 -12.521,-12.328 -12.521,-12.328c0,0 17.336,2.889 27.16,0.578c9.824,-2.312 14.062,-6.935 14.062,-6.935c-0,0 -21.574,-12.52 -33.517,-24.655c-11.943,-12.136 -18.685,-30.435 -18.685,-30.435c0,-0 18.107,15.025 30.435,18.877c12.328,3.853 31.976,3.66 39.295,1.541c7.32,-2.119 51.054,-55.223 83.973,-73.446c32.919,-18.224 54.082,-31.744 87.001,-43.501c32.919,-11.757 58.196,-12.932 71.129,-12.932c12.932,-0 20.574,-5.291 32.331,-5.291c11.757,0 119.985,-2.134 135.792,-0.588c44.464,4.35 105.224,24.102 105.224,24.102c-0,-0 1.364,-16.436 -16.695,-25.089c-18.058,-8.653 -33.107,-14.297 -33.107,-14.297c-0,0 28.216,-9.405 47.027,1.881c18.811,11.287 45.899,31.227 54.552,44.771c8.653,13.543 14.673,47.403 14.673,47.403c-0,0 4.89,5.643 9.405,-0.752c4.515,-6.396 13.684,-14.664 13.684,-14.664c0,-0 -6.934,14.793 -7.242,17.259c-0.309,2.465 -0.309,8.475 -0.309,8.475c0,0 12.328,-0.154 18.03,0.771c5.702,0.924 14.948,3.698 14.948,3.698c-0,0 -16.489,6.164 -17.259,10.941c-0.771,4.777 -0,7.859 -0,7.859c-0,0 13.406,-0.308 17.259,2.62c3.852,2.928 16.18,15.718 21.419,18.8c5.24,3.082 20.033,20.495 39.604,17.105c19.571,-3.39 32.977,-14.485 32.977,-14.485c0,-0 -10.478,36.059 -26.659,39.757c-16.18,3.699 -25.58,-0.154 -25.58,-0.154c-0,0 17.721,17.568 19.878,24.502c2.158,6.935 12.328,19.725 12.328,19.725c0,-0 -11.711,2.774 -9.246,30.203c2.466,27.43 33.748,47.001 33.748,47.001c0,-0 -18.492,4.469 -21.265,8.013c-2.774,3.544 -1.609,24.598 -6.424,53.732c-4.816,29.135 -32.506,83.31 -32.506,83.31c0,0 -1.204,5.298 5.057,7.465c6.26,2.167 18.299,-0.241 18.299,-0.241c-0,-0 -10.113,15.41 -16.373,18.058c-6.261,2.649 -11.076,9.391 -11.076,9.391c-0,-0 8.186,9.39 6.742,14.447c-1.445,5.056 -8.668,20.948 -13.725,21.188c-5.056,0.241 -7.223,2.89 -7.223,7.946c-0,5.056 16.132,20.948 16.132,20.948c0,0 -19.022,-1.926 -22.392,2.649c-3.371,4.574 -3.853,9.39 -0,14.928c3.852,5.538 13.002,10.835 17.095,19.022c4.093,8.186 8.427,26.004 8.427,26.004c0,-0 -10.113,-13.484 -25.763,-17.577c-15.651,-4.093 -19.744,-0.241 -19.744,-0.241c-0,0 1.444,7.946 6.019,12.521c4.575,4.575 17.577,9.872 17.577,9.872l1.564,18.605Zm-71.682,39.327c19.4,-9.425 34.778,-17.529 47.062,-24.463l-7.764,-9.15c0,-0 -16.373,-4.334 -33.709,-1.927c-7.645,1.062 -15.103,3.856 -21.052,6.649c0.341,1.598 0.732,3.005 1.174,4.209c3.743,10.183 8.842,18.138 14.289,24.682Zm284.685,1803.29c-0,-0 44.088,-17.635 56.58,-50.702c12.491,-33.066 -13.232,-39.743 -7.454,-52.264c5.779,-12.52 63.085,-23.596 63.085,-23.596c-0,-0 -0.963,-35.636 1.444,-44.545c2.408,-8.909 19.022,-43.099 19.022,-43.099c0,-0 32.024,2.167 35.154,1.203c3.13,-0.963 9.872,-14.206 9.872,-14.206l0,-35.154c0,0 21.911,-25.281 27.208,-33.227c5.297,-7.946 52.25,-77.05 51.286,-85.477c-0.963,-8.428 -12.52,-16.855 -12.279,-25.764c0.24,-8.909 12.279,-13.724 13.724,-17.577c1.445,-3.852 13.725,-19.985 16.373,-25.763c2.649,-5.779 16.132,-25.523 16.132,-25.523c0,-0 0.723,-30.82 -6.982,-41.896c-7.705,-11.076 -13.002,-19.503 -13.002,-19.503l-0.241,-31.061c-0,0 -8.909,-7.945 -12.039,-13.724c-3.13,-5.779 -2.167,-12.28 -2.167,-12.28l-32.265,-31.542c0,-0 -34.431,-17.336 -36.117,-26.968c-1.685,-9.631 5.057,-18.299 6.261,-25.763c1.203,-7.464 0.481,-20.707 0.481,-20.707l-9.631,-8.909l0.963,-5.779c-0,0 -18.299,-21.911 -22.874,-22.152c-4.575,-0.24 -26.968,35.395 -26.968,35.395l-2.889,76.327c0,0 -63.807,61.159 -64.288,67.178c-0.482,6.02 25.282,42.137 21.67,57.065c-3.612,14.929 -99.202,78.495 -101.128,89.33c-1.926,10.835 4.816,4.575 6.501,9.149c1.686,4.575 -3.852,74.883 1.204,88.608c5.057,13.724 11.317,37.802 11.317,39.728c-0,1.927 -28.171,46.953 -28.412,58.028c-0.241,11.076 6.742,11.558 6.742,11.558c-0,-0 -0,30.82 -0.964,37.802c-0.963,6.983 -4.334,2.408 -4.574,23.356c-0.241,20.948 12.761,38.766 12.761,38.766c-0,-0 6.742,26.245 6.26,41.414c-0.481,15.169 0.234,62.274 0.234,62.274Z" style="fill:#facc15;"/></g></svg>