<?xml version="1.0" encoding="UTF-8" standalone="no"?><!DOCTYPE svg PUBLIC "-//W3C//DTD SVG 1.1//EN" "http://www.w3.org/Graphics/SVG/1.1/DTD/svg11.dtd"><svg width="100%" height="100%" viewBox="0 0 4269 4269" version="1.1" xmlns="http://www.w3.org/2000/svg" xmlns:xlink="http://www.w3.org/1999/xlink" xml:space="preserve" xmlns:serif="http://www.serif.com/" style="fill-rule:evenodd;clip-rule:evenodd;stroke-linejoin:round;stroke-miterlimit:2;"><rect id="profi-shape-white" x="0.737" y="0.332" width="4266.67" height="4266.67" style="fill:none;"/><g id="profi-shape-white1" serif:id="profi-shape-white"><g id="Layer9"><path d="M2023.67,1238.84c-6.049,-0.526 -19.645,-3.591 -24.68,-5.393c3.837,0.185 7.977,0.642 12.908,1.268c3.274,0.416 7.298,1.901 11.772,4.125Zm1380.25,2963.86c0.043,0.365 0.049,0.555 0.049,0.555c0,0 -0.016,-0.191 -0.049,-0.555Z" style="fill:#fff;"/><g id="Layer10"></g><path d="M2023.67,1238.84c-6.049,-0.526 -19.645,-3.591 -24.68,-5.393c3.837,0.185 7.977,0.642 12.908,1.268c3.274,0.416 7.298,1.901 11.772,4.125Z" style="fill:#fff;"/><g id="Layer12"></g><g id="Layer13"></g><g id="Layer11"><path d="M3403.92,4202.69c-0.307,-2.592 -2.464,-13.964 -17.255,-27.997c-16.872,-16.006 -128.019,-25.495 -352.456,-30.776c-224.436,-5.281 -379.316,10.22 -379.316,10.22l28.642,112.86l-322.206,-0c0,-0 4.499,-45.119 -5.537,-70.729c-10.037,-25.611 -17.997,-16.959 -23.88,-26.303c-5.884,-9.344 -23.88,-138.434 -23.88,-138.434c-0,-0 -130.474,-4.153 -179.273,-5.192c-48.798,-1.038 -156.777,-13.843 -156.777,-13.843c0,-0 9.691,61.603 9.691,100.365c-0,38.762 -15.92,153.804 -15.92,153.804l-316.323,0.332c0,-0 0.346,-30.929 4.499,-55.502c4.153,-24.572 11.481,-34.859 12.113,-48.452c0.693,-14.881 -2.422,-102.441 -2.422,-102.441c-0,-0 -50.529,23.88 -82.715,53.297c-32.186,29.417 -91.713,93.789 -91.713,93.789c0,0 -25.649,-42.859 -33.57,-103.588c-7.922,-60.73 -6.602,-396.064 25.084,-649.545c31.685,-253.481 110.898,-503.001 110.898,-503.001c-0,-0 -21.005,-149.02 -2.905,-199.3c19.011,-52.808 80.269,-54.921 86.606,-86.606c6.337,-31.685 -30.629,-101.392 -23.236,-128.853c7.394,-27.46 32.742,-16.898 44.36,-49.64c11.617,-32.741 -22.872,-147.297 -13.367,-175.813c9.506,-28.517 60.894,-41.758 60.894,-41.758c0,0 2.229,-31.189 -2.616,-42.61c-4.845,-11.421 -24.226,-28.033 -23.534,-38.416c0.692,-10.382 10.383,-15.92 10.383,-15.92c-0,0 -6.576,-32.878 -8.306,-49.49c-1.731,-16.612 -0,-163.007 -0,-163.007c-0,0 -65.411,34.609 -113.17,67.141c-47.76,32.532 -133.244,96.904 -133.244,96.904c0,0 -13.843,35.993 -29.417,44.299c-15.574,8.306 -49.49,-20.765 -49.49,-20.765c-0,0 -24.918,30.11 -43.607,39.8c-18.689,9.69 -128.744,8.998 -146.74,4.153c-17.997,-4.845 -26.649,-11.421 -26.649,-11.421c-0,0 -6.922,3.807 -12.459,-2.422c-5.538,-6.23 -5.884,-31.148 -15.574,-46.722c-9.69,-15.574 -26.649,-36.339 -29.763,-67.833c-3.115,-31.494 39.107,-140.511 32.532,-158.507c-6.576,-17.997 -14.536,-13.152 -18.343,-26.995c-3.807,-13.843 5.884,-21.457 7.96,-33.916c2.077,-12.46 4.153,-67.141 6.922,-89.983c2.769,-22.841 7.825,-90.704 22.966,-104.115c15.141,-13.411 45.856,-5.624 74.841,-6.489c8.247,-0.246 32.128,-3.677 62.588,-8.958l69.272,-132.475l56.065,-151.244c0,-0 -15.141,-71.38 -13.519,-98.418c1.623,-27.038 0,-51.372 14.601,-94.092c14.6,-42.72 110.855,-156.28 124.374,-160.606c13.519,-4.326 20.008,-2.163 30.283,-2.163c10.274,0 20.008,-10.274 36.231,-7.57c16.222,2.703 21.089,26.497 21.089,26.497c0,-0 31.905,-35.149 51.372,-30.823c19.468,4.326 22.171,18.926 22.171,18.926c0,0 16.981,-21.372 31.124,-36.973c-5.396,-1.187 -10.176,-2.405 -15.406,-3.667c-16.706,-4.033 -36.685,-17.65 -53.99,-34.609c-17.304,-16.958 -28.725,-36.685 -28.725,-36.685c0,0 -23.188,-100.711 -6.922,-125.283c2.379,-3.594 7.287,-6.331 14.1,-8.374c2.509,-11.101 6.043,-26.04 8.43,-33.2c4.06,-12.182 15.874,-30.271 15.874,-30.271c-0,0 -47.991,24.734 -62.757,28.056c-14.766,3.322 -32.117,-7.752 -32.117,-7.752c0,-0 28.425,-28.056 38.023,-38.762c9.598,-10.705 29.164,-29.901 33.594,-46.144c4.43,-16.243 4.43,-25.472 3.691,-31.01c-0.738,-5.537 -15.874,-2.584 -15.874,-2.584c0,0 -0.738,-11.074 4.43,-17.719c5.169,-6.645 17.351,-6.645 24.365,-13.659c7.014,-7.014 13.289,-22.149 13.289,-22.149c0,-0 -14.028,2.953 -31.378,3.322c-17.35,0.369 -31.499,-10.568 -31.499,-10.568c-0,-0 40.402,-19.597 55.886,-30.363c15.483,-10.766 26.491,-25.16 26.491,-25.16c-0,-0 -7.5,-9.436 -13.79,-12.944c-5.643,-3.147 -25.04,-7.137 -25.04,-7.137c0,0 4.96,-5.443 14.032,-8.588c9.072,-3.145 25.645,-1.694 33.628,-3.992c7.984,-2.298 14.744,-9.556 28.989,-14.279c14.244,-4.722 39.552,-1.95 39.552,-1.95c-0,0 23.331,-26.579 32.486,-32.781c9.155,-6.202 31.777,-18.723 48.551,-27.465c16.775,-8.742 40.165,-17.247 48.434,-21.5c8.269,-4.252 8.978,-7.796 8.978,-7.796c-0,-0 -21.736,-3.308 -48.67,3.78c-14.851,3.908 -49.142,16.302 -49.142,16.302c-0,-0 21.499,-26.698 30.95,-35.439c9.45,-8.742 34.966,-16.539 57.884,-19.846c22.917,-3.308 63.081,-2.127 71.823,-0.236c8.741,1.89 25.516,16.774 34.73,20.318c9.214,3.544 19.61,-0.709 82.219,3.071c62.609,3.78 83.4,13.231 88.125,4.726c4.725,-8.506 -67.334,-38.275 -67.334,-38.275c-0,0 41.818,0.709 52.922,3.072c11.104,2.362 35.203,11.813 51.032,18.664c15.83,6.852 37.802,27.17 50.56,31.659c12.758,4.489 18.665,3.308 24.335,0c5.67,-3.307 0.473,-30.241 0.473,-30.241c-0,-0 5.197,7.324 10.159,9.45c4.961,2.127 11.104,1.89 11.104,1.89c-0,0 3.78,-12.521 -1.418,-26.697c-5.197,-14.176 -27.878,-37.566 -27.878,-37.566c-0,0 37.329,21.973 46.307,32.841c8.978,10.868 18.901,20.318 37.093,52.213c18.192,31.895 16.803,50.957 25.27,62.751c8.468,11.794 68.043,4.234 76.208,4.234c8.165,-0 23.891,-5.292 23.891,-5.292c-0,-0 -7.712,30.695 -12.701,37.045c-4.99,6.351 -23.891,26.008 -30.393,29.032c-6.502,3.024 -10.887,-0 -16.633,3.175c-5.746,3.176 -7.711,11.19 -7.711,11.19c-0,-0 16.632,3.326 29.183,8.77c12.55,5.443 19.959,9.072 33.719,19.959c14.109,11.163 23.89,37.197 23.89,37.197c0,-0 -42.186,-23.891 -53.073,-27.369c-10.887,-3.477 -23.286,0.908 -23.286,0.908c0,-0 31.947,35.405 40.712,47.597c11.126,15.475 19.787,65.267 19.787,65.267c0,-0 -7.974,-21.854 -12.108,-26.58c-4.135,-4.725 -6.497,-0.886 -10.632,-5.02c-4.134,-4.135 -10.041,-7.974 -10.041,-7.974c0,-0 -1.477,17.129 -0.295,28.351c0.989,9.399 7.383,14.176 4.134,34.258c-3.248,20.082 -10.927,25.398 -10.927,25.398c0,0 -4.725,25.693 1.182,37.802c5.906,12.108 15.947,10.041 22.149,17.424c6.202,7.383 0.295,23.035 0.295,23.035c0,0 -3.248,-10.631 -9.745,-15.061c-6.498,-4.43 -15.653,-0.886 -15.653,-0.886l-4.43,23.035c-1.476,7.679 -2.067,21.854 -2.067,21.854l-24.807,-21.854c-0,0 -10.927,18.31 -20.082,37.802c-9.155,19.491 -10.632,31.304 -13.585,36.916c-2.954,5.611 -8.86,0.59 -13.585,8.859c-4.726,8.269 -1.477,22.15 -1.477,22.15c0,-0 -12.699,-0 -13.585,16.833c-0.886,16.834 14.176,15.062 27.761,14.767c13.585,-0.296 33.076,-10.632 33.076,-10.632c0,-0 -18.901,16.833 -32.19,20.673c-13.29,3.839 -31.895,2.953 -30.714,15.947c1.181,12.995 40.459,16.539 40.459,16.539l-42.526,17.424c-0,-0 -5.612,7.088 -2.658,21.854c0.329,1.646 0.84,3.36 1.489,5.106c30.312,-19.159 60.597,-37.42 70.352,-39.452c20.279,-4.225 87.029,-4.225 87.874,19.433c0.845,23.658 -31.263,23.658 -31.263,23.658c0,0 -20.189,17.195 -38.878,101.64c-18.688,84.445 -6.575,99.673 -6.575,99.673c-0,0 53.989,-15.574 65.41,-11.767c11.421,3.807 27.687,31.494 66.102,56.412c38.416,24.919 159.546,88.945 179.273,97.597c19.727,8.652 55.028,14.535 67.487,28.725c12.459,14.189 45.045,105.062 55.607,185.331c10.561,80.269 7.62,169.521 7.62,169.521c0,0 61.95,46.722 62.296,60.565c0.346,13.844 -32.878,51.913 -32.878,51.913l-1.038,19.035c-0,-0 69.909,32.532 74.408,57.104c4.499,24.572 -21.111,79.946 -21.111,79.946c-0,0 -2.077,76.831 14.189,87.56c16.266,10.729 32.879,4.499 45.338,21.803c12.459,17.305 -7.268,110.056 -7.268,110.056c-0,-0 16.266,13.843 26.648,19.035c10.383,5.191 31.84,12.459 33.571,18.342c1.73,5.884 -8.998,61.604 -9.344,75.447c-0.347,13.843 26.302,78.908 26.994,85.829c0.692,6.922 -29.763,18.689 -31.84,34.263c-2.076,15.574 2.423,28.033 7.96,31.84c5.538,3.807 17.305,4.845 22.496,9.69c5.191,4.846 7.17,79.189 10.237,133.89c3.244,57.862 1.081,196.837 1.081,196.837c0,0 -26.729,30.229 -92.392,34.791c-4.912,29.866 -11.676,64.457 -20.795,99.26c-12.289,46.906 -29.386,93.986 -43.576,133.767c5.582,6.227 10.839,12.255 15.719,18.058c76.325,90.765 176.462,163.367 288.797,387.813c84.339,168.51 55.796,373.71 61.985,445.91c6.188,72.199 65.739,178.458 70.497,200.521c4.405,20.421 7.327,51.59 7.738,56.116Zm-1357.43,-2949.5c1.008,0.727 2.015,1.462 3.019,2.204l-0.096,-4.589l-2.923,2.385Zm-22.824,-14.353c6.109,3.037 13.058,7.45 20.085,12.4l5.301,-17.61c-0,-0 -6.061,6.891 -25.386,5.21Zm-24.68,-5.393c5.035,1.802 18.631,4.867 24.68,5.393c-4.474,-2.224 -8.498,-3.709 -11.772,-4.125c-4.931,-0.626 -9.071,-1.083 -12.908,-1.268Zm-149.691,-257.731c1.514,10 1.768,20.122 0.577,28.798c-3.785,27.579 -40.557,118.426 -32.446,122.212c8.112,3.785 38.394,-37.313 50.832,-30.824c12.437,6.49 -30.283,120.59 -46.505,152.495c-16.223,31.904 -76.788,116.803 -108.693,148.167c-31.905,31.364 -65.432,54.617 -80.573,74.625c-1.409,1.861 -2.887,3.957 -4.422,6.259c82.665,-76.426 142.257,-124.449 173.162,-135.963c43.092,-16.054 116.602,-83.648 149.554,-96.323c25.501,-9.808 35.074,-12.35 48.205,-11.715c-54.13,-19.372 -88.217,-109.583 -113.035,-167.679c-6.689,-15.658 -19.547,-49.143 -34.859,-89.973c-0.6,-0.025 -1.199,-0.052 -1.797,-0.079Zm868.42,1788.11c-43.425,-22.536 -73.314,-40.112 -73.314,-40.112c-0,-0 7.767,-278.899 20.745,-288.633c12.978,-9.734 36.231,-5.408 36.231,-5.408l-1.082,-29.201c0,0 -4.648,7.543 -23.155,5.264c-18.731,-2.306 -26.692,-19.904 -26.692,-24.334c-0,-4.43 3.101,-11.518 3.101,-11.518c-0,0 -14.722,-8.637 -14.84,-21.485c-0.222,-23.921 25.25,-34.553 25.25,-34.553c-0,0 -8.019,-107.256 -28.351,-139.269c-20.333,-32.013 -26.822,-38.502 -41.963,-71.812c-15.142,-33.311 -32.013,-85.657 -32.013,-85.657l-10.816,-2.595c0,-0 1.585,35.994 -20.478,90.502c-22.063,54.509 -54.941,86.955 -63.161,106.854c-8.219,19.9 -20.765,57.537 -20.765,57.537c-0,0 16.872,19.9 18.169,41.531c1.298,21.63 -22.928,82.628 -22.928,82.628c0,-0 18.602,5.191 22.928,26.821c4.327,21.631 -9.517,53.644 -8.219,63.161c1.298,9.517 55.374,82.196 55.374,82.196c-0,-0 15.141,2.163 20.332,10.382c5.192,8.22 -1.73,33.744 -1.73,33.744c-0,-0 71.373,71.547 135.588,168.715c13.416,20.302 31.382,42.727 52.107,66.33l-0.318,-81.088Z" style="fill:#fff;"/></g></g></g></svg>